<svg id="Layer_1" data-name="Layer 1" xmlns="http://www.w3.org/2000/svg" xmlns:xlink="http://www.w3.org/1999/xlink" viewBox="0 0 335.37 332.32"><defs><style>.cls-1,.cls-10,.cls-11,.cls-3,.cls-9{fill:none;}.cls-2,.cls-5{fill:#20327f;}.cls-10,.cls-3{stroke:#20327f;}.cls-10,.cls-11,.cls-3,.cls-9{stroke-miterlimit:3.86;}.cls-3{stroke-width:0.69px;}.cls-4{clip-path:url(#clip-path);}.cls-5,.cls-6,.cls-7{fill-rule:evenodd;}.cls-6{fill:#d1bd7e;}.cls-7,.cls-8{fill:#fff;}.cls-9{stroke:#fff;stroke-width:1.2px;}.cls-10{stroke-width:1.92px;}.cls-11{stroke:#d1bd7e;stroke-width:2.39px;}</style><clipPath id="clip-path"><path class="cls-1" d="M68.79,169.34A99.23,99.23,0,1,0,168,70.12a99.23,99.23,0,0,0-99.23,99.22"/></clipPath></defs><path class="cls-2" d="M230.9,305.64s-6.29-.29-13.93-5.07c-.84-.52,8.89-2.09,9.82-2.05s9.36,4.54,12.55,3.28-8.44,3.84-8.44,3.84m12-6.41s-6.3,0-14.17-4.33c-.87-.48,8.77-2.56,9.7-2.57s9.58,4.05,12.7,2.62-8.23,4.28-8.23,4.28m12.1-7.56s-6.27.58-14.5-3.09c-.91-.4,8.51-3.32,9.44-3.4s9.9,3.2,12.88,1.5-7.82,5-7.82,5m10.82-8.61s-6.17,1.24-14.74-1.55c-.94-.3,8.12-4.19,9-4.37s10.17,2.14,13,.14-7.27,5.78-7.27,5.78m10.2-9.12s-6.07,1.66-14.81-.52c-1-.24,7.81-4.75,8.71-5s10.31,1.43,13-.76-6.85,6.27-6.85,6.27m9.54-11.39s-5.82,2.38-14.77,1.29c-1-.13,7.18-5.67,8-6s10.4.16,12.76-2.33-6,7.06-6,7.06m7.5-10.71s-5.65,2.79-14.64,2.32c-1-.06,6.76-6.15,7.59-6.56s10.39-.57,12.57-3.22-5.52,7.46-5.52,7.46m7.66-11.14s-5.32,3.37-14.32,3.84c-1,.05,6.08-6.83,6.87-7.32s10.27-1.65,12.16-4.51-4.71,8-4.71,8m8-129.75s-1,6.23-6.5,13.32c-.61.78-1.16-9.06-1-10s5.5-8.83,4.58-12.14,2.94,8.8,2.94,8.8m4.16,14.78s-1.27,6.16-7.19,13c-.65.75-.68-9.11-.49-10s5.95-8.54,5.2-11.88,2.48,8.94,2.48,8.94M307,227.55s-4.81,4.07-13.65,5.79c-1,.19,5.07-7.6,5.78-8.2s9.94-3.06,11.42-6.16-3.55,8.57-3.55,8.57m5-13.46s-4.27,4.63-12.84,7.41c-.94.31,4.11-8.16,4.74-8.84s9.49-4.25,10.57-7.51-2.47,8.94-2.47,8.94M315.54,200s-3.85,5-12.14,8.5c-.91.39,3.38-8.49,4-9.22s9.09-5.06,9.88-8.4-1.69,9.12-1.69,9.12m2.55-14.67s-3.31,5.35-11.19,9.72c-.86.48,2.48-8.8,3-9.59s8.51-6,8.95-9.38-.73,9.25-.73,9.25m.79-14.37s-2.73,5.67-10.11,10.84c-.81.57,1.54-9,2-9.84s7.84-6.84,7.92-10.28.24,9.28.24,9.28m-.5-15.62s-2,6-8.71,12c-.73.66.43-9.13.73-10s7-7.74,6.61-11.15,1.37,9.17,1.37,9.17m-2.24-14.6s-2,6-8.71,12c-.74.66.43-9.13.74-10s6.94-7.74,6.6-11.16,1.37,9.18,1.37,9.18M23.85,223.3s.52-6.28,5.56-13.75c.55-.82,1.79,9,1.71,9.89s-4.87,9.19-3.72,12.43-3.55-8.57-3.55-8.57m5.95,13.48s.19-6.29,4.83-14c.51-.84,2.25,8.86,2.22,9.79s-4.38,9.44-3.06,12.6-4-8.37-4-8.37M37,249s-.37-6.29,3.58-14.38c.44-.89,3,8.62,3.07,9.55s-3.54,9.78-1.94,12.82S37,249,37,249m8.38,11.68s-1-6.22,2.06-14.68c.34-.93,3.91,8.26,4,9.17s-2.49,10.11-.59,13-5.52-7.46-5.52-7.46m9.12,10.71s-1.44-6.13,1-14.79c.27-1,4.47,8,4.68,8.88s-1.79,10.24.31,13-6-7.05-6-7.05M64.76,281.6s-2.18-5.9-.77-14.8c.15-1,5.41,7.37,5.72,8.24s-.52,10.39,1.89,12.83-6.84-6.27-6.84-6.27m10.95,9.17s-2.6-5.74-1.81-14.71c.09-1,5.91,7,6.29,7.82s.2,10.4,2.77,12.67-7.25-5.78-7.25-5.78M88,298.87s-3.17-5.44-3.33-14.45c0-1,6.6,6.32,7.07,7.12s1.29,10.33,4.09,12.31-7.83-5-7.83-5m129.39,12.51s-6.18-1.17-13.09-7c-.75-.63,9.1-.84,10-.67s8.63,5.81,12,5-8.9,2.64-8.9,2.64M202.52,315s-6.12-1.48-12.71-7.63c-.72-.68,9.13-.37,10-.14s8.32,6.24,11.7,5.61-9,2.16-9,2.16M101,305.63s-3.91-4.94-5.32-13.84c-.15-1,7.43,5.34,8,6.07s2.71,10,5.76,11.61-8.44-3.84-8.44-3.84m13.27,5.48s-4.47-4.43-7-13.09c-.27-.95,8,4.39,8.68,5s3.91,9.64,7.13,10.84-8.85-2.79-8.85-2.79m13.92,4s-4.85-4-8.08-12.43c-.35-.93,8.38,3.67,9.08,4.27s4.75,9.26,8,10.17-9-2-9-2m14.58,3.06s-5.24-3.5-9.33-11.52c-.45-.89,8.7,2.78,9.47,3.3s5.69,8.71,9.08,9.27-9.22-1.05-9.22-1.05m14.32,1.29s-5.57-2.93-10.48-10.48c-.53-.83,9,1.85,9.77,2.28s6.57,8.08,10,8.28-9.28-.08-9.28-.08m15.63,0s-5.89-2.22-11.68-9.13c-.63-.76,9.11.75,10,1.09s7.49,7.21,10.92,7-9.22,1-9.22,1m14.67-1.73s-5.89-2.22-11.68-9.12c-.63-.76,9.11.74,10,1.07s7.5,7.22,10.93,7-9.23,1.05-9.23,1.05M302.91,97.34s-.19,6.29-4.83,14c-.5.85-2.25-8.86-2.22-9.79s4.38-9.44,3.06-12.6,4,8.37,4,8.37m-7.35-12.27s.36,6.29-3.59,14.39c-.43.89-3-8.63-3.06-9.56s3.54-9.78,1.94-12.82,4.71,8,4.71,8m-8.49-11.39s1,6.22-2.06,14.68c-.34.93-3.91-8.27-4.05-9.18s2.49-10.1.59-13,5.52,7.46,5.52,7.46m-9.62-10.79s1.56,6.1-.77,14.8c-.26,1-4.61-7.89-4.84-8.79s1.61-10.28-.53-13,6.14,7,6.14,7m-11.14-10.6s2.5,5.79,1.55,14.75c-.1,1-5.79-7.08-6.15-7.93s0-10.41-2.56-12.72,7.16,5.9,7.16,5.9m-11.14-8.9S258,49,257.5,58c-.06,1-6.15-6.77-6.57-7.6s-.56-10.39-3.21-12.56,7.45,5.51,7.45,5.51m-13.49-8.56S245.23,40,246,49c.08,1-7-5.84-7.56-6.6s-2-10.21-4.93-12,8.15,4.42,8.15,4.42m-14.19-7.12s4.16,4.73,6,13.54c.21,1-7.69-4.94-8.3-5.64s-3.23-9.89-6.37-11.3,8.64,3.4,8.64,3.4m-13.8-5.33s4.47,4.43,7,13.1c.27,1-8-4.39-8.68-5s-3.91-9.64-7.13-10.83,8.85,2.78,8.85,2.78m-14.62-3.61s4.85,4,8.07,12.44c.36.92-8.37-3.68-9.08-4.28s-4.74-9.26-8.05-10.17,9.06,2,9.06,2m-15.66-2s5.35,3.31,9.72,11.19c.48.86-8.8-2.48-9.59-3s-6-8.51-9.38-8.95,9.25.73,9.25.73M167.8,15.45s5.68,2.73,10.84,10.11c.57.81-9-1.54-9.84-1.95S162,15.77,158.53,15.7s9.27-.25,9.27-.25m-13.78.3s5.67,2.73,10.84,10.11c.57.81-9-1.54-9.85-1.95s-6.84-7.84-10.27-7.92,9.28-.24,9.28-.24m-15.44,2s6.09,1.6,12.57,7.86c.71.69-9.13.2-10,0s-8.21-6.39-11.6-5.82,9.06-2,9.06-2m-14.67,3.82s6.21,1.06,13.21,6.73c.77.63-9.09,1-10,.84s-8.74-5.65-12.06-4.78,8.85-2.79,8.85-2.79m-14,4.75s6.25.73,13.54,6c.8.58-9,1.48-9.94,1.36s-9-5.18-12.29-4.14S110,26.33,110,26.33M97.21,32.39s6.3.19,14,4.83c.85.51-8.86,2.25-9.79,2.22S92,35.06,88.84,36.38s8.37-4,8.37-4M84.85,39.73s6.28-.48,14.44,3.33c.9.42-8.57,3.17-9.5,3.23S80,42.93,76.94,44.57s7.91-4.84,7.91-4.84M73.38,47.88S79.61,47,88,50.2c.93.35-8.33,3.76-9.24,3.89s-10.06-2.68-13-.82,7.55-5.39,7.55-5.39M62.26,57.25s6.07-1.66,14.81.52c1,.24-7.81,4.75-8.71,5s-10.3-1.43-13,.76,6.85-6.27,6.85-6.27M52.17,67.35s5.94-2.08,14.81-.51c1,.17-7.46,5.28-8.34,5.58s-10.37-.7-12.86,1.66,6.39-6.73,6.39-6.73M43,78.93s5.69-2.69,14.68-2.06c1,.07-6.87,6-7.71,6.42s-10.4.39-12.62,3S43,78.93,43,78.93M19.29,206.74s1.7-6.06,8.07-12.43c.7-.7.05,9.14-.2,10s-6.54,8.1-6,11.49-1.85-9.09-1.85-9.09M17,191.57s2-6,8.71-12c.74-.66-.43,9.14-.73,10s-6.94,7.75-6.61,11.16S17,191.57,17,191.57M35.17,91.21s5.26-3.46,14.25-4.08c1-.07-6,6.93-6.74,7.43S32.44,96.39,30.6,99.29s4.57-8.08,4.57-8.08M28.55,104s4.81-4.07,13.65-5.79c1-.19-5.07,7.61-5.79,8.2s-9.94,3.06-11.41,6.17S28.55,104,28.55,104m-5.21,13.52s4.43-4.48,13.09-7c1-.28-4.39,8-5,8.67s-9.64,3.92-10.83,7.14,2.78-8.85,2.78-8.85M19,131.73s3.93-4.91,12.29-8.28c.92-.38-3.53,8.43-4.11,9.15s-9.18,4.9-10,8.23,1.85-9.1,1.85-9.1M16.49,145.9s3.4-5.3,11.36-9.53c.87-.47-2.63,8.75-3.13,9.53s-8.62,5.83-9.12,9.23.89-9.23.89-9.23m-1.41,15.56s2.73-5.68,10.11-10.84c.81-.57-1.54,9-1.94,9.84s-7.85,6.84-7.93,10.27-.24-9.27-.24-9.27m.44,14.77s2.73-5.68,10.11-10.84c.81-.58-1.54,9-1.95,9.84s-7.83,6.84-7.91,10.27-.25-9.27-.25-9.27"/><path class="cls-3" d="M230.9,305.64s-6.29-.29-13.93-5.07c-.84-.52,8.89-2.09,9.82-2.05s9.36,4.54,12.54,3.28S230.9,305.64,230.9,305.64Zm12-6.41s-6.3,0-14.17-4.33c-.87-.48,8.77-2.56,9.7-2.57s9.58,4.05,12.7,2.62-8.23,4.28-8.23,4.28m12.1-7.56s-6.27.58-14.5-3.09c-.91-.4,8.51-3.32,9.44-3.4s9.9,3.2,12.88,1.5-7.82,5-7.82,5m10.82-8.61s-6.17,1.24-14.74-1.55c-.94-.3,8.12-4.19,9-4.37s10.17,2.14,13,.14-7.27,5.78-7.27,5.78m10.2-9.12s-6.07,1.66-14.81-.52c-1-.24,7.81-4.75,8.71-5s10.3,1.43,13-.76-6.85,6.27-6.85,6.27m9.54-11.39s-5.82,2.38-14.77,1.29c-1-.13,7.18-5.67,8-6s10.4.16,12.76-2.33-6,7.06-6,7.06m7.5-10.71s-5.65,2.79-14.64,2.32c-1-.06,6.76-6.15,7.59-6.56s10.39-.57,12.57-3.22-5.52,7.46-5.52,7.46m7.66-11.14s-5.32,3.37-14.32,3.84c-1,.05,6.08-6.83,6.87-7.32s10.27-1.65,12.16-4.51-4.71,8-4.71,8m8-129.75s-1,6.23-6.5,13.32c-.61.78-1.16-9.06-1-10s5.5-8.83,4.58-12.14,2.94,8.8,2.94,8.8m4.16,14.78s-1.27,6.16-7.19,13c-.65.75-.68-9.11-.49-10s5.95-8.54,5.2-11.88,2.48,8.94,2.48,8.94M307,227.55s-4.81,4.07-13.65,5.79c-1,.19,5.07-7.6,5.78-8.2s9.94-3.06,11.42-6.16-3.55,8.57-3.55,8.57m5-13.46s-4.27,4.63-12.84,7.41c-.94.31,4.11-8.16,4.74-8.84s9.49-4.25,10.57-7.51-2.47,8.94-2.47,8.94M315.54,200s-3.85,5-12.14,8.5c-.91.39,3.38-8.49,4-9.22s9.09-5.06,9.88-8.4-1.69,9.12-1.69,9.12m2.55-14.67s-3.31,5.35-11.19,9.72c-.86.48,2.48-8.8,3-9.59s8.51-6,8.95-9.38-.73,9.25-.73,9.25m.79-14.37s-2.73,5.67-10.11,10.84c-.81.57,1.54-9,1.94-9.84s7.85-6.84,7.92-10.28.25,9.28.25,9.28m-.5-15.62s-2,6-8.71,12c-.73.66.43-9.13.73-10s7-7.74,6.61-11.15,1.37,9.17,1.37,9.17m-2.24-14.6s-2,6-8.71,12c-.74.66.43-9.13.73-10s6.95-7.74,6.61-11.16,1.37,9.18,1.37,9.18M23.85,223.3s.52-6.28,5.55-13.75c.56-.82,1.79,9,1.72,9.89s-4.87,9.19-3.72,12.43-3.55-8.57-3.55-8.57m5.95,13.48s.19-6.29,4.83-14c.51-.84,2.25,8.86,2.22,9.79s-4.38,9.44-3.06,12.6-4-8.37-4-8.37M37,249s-.37-6.29,3.58-14.38c.44-.89,3,8.62,3.07,9.55s-3.54,9.78-1.94,12.82S37,249,37,249m8.38,11.68s-1-6.22,2.06-14.68c.34-.93,3.91,8.26,4,9.17s-2.49,10.11-.59,13-5.52-7.46-5.52-7.46m9.12,10.71s-1.45-6.13,1-14.79c.27-1,4.47,8,4.68,8.88s-1.79,10.24.31,13-6-7.05-6-7.05M64.76,281.6s-2.19-5.9-.77-14.8c.15-1,5.4,7.37,5.72,8.24s-.52,10.39,1.89,12.83-6.84-6.27-6.84-6.27m10.95,9.17s-2.6-5.74-1.81-14.71c.08-1,5.91,7,6.29,7.82s.2,10.4,2.77,12.67-7.25-5.78-7.25-5.78M88,298.87s-3.18-5.44-3.33-14.45c0-1,6.6,6.32,7.07,7.12s1.29,10.33,4.09,12.31-7.83-5-7.83-5m129.39,12.51s-6.18-1.17-13.09-7c-.75-.63,9.1-.84,10-.67s8.63,5.81,12,5-8.9,2.64-8.9,2.64M202.52,315s-6.12-1.48-12.71-7.63c-.72-.68,9.13-.37,10-.14s8.32,6.24,11.7,5.61-9,2.16-9,2.16M101,305.63s-3.91-4.94-5.32-13.84c-.15-1,7.43,5.34,8,6.07s2.71,10,5.75,11.61-8.43-3.84-8.43-3.84m13.27,5.48s-4.48-4.43-7-13.09c-.27-.95,8,4.39,8.68,5s3.91,9.64,7.13,10.84-8.85-2.79-8.85-2.79m13.92,4s-4.85-4-8.08-12.43c-.35-.93,8.37,3.67,9.08,4.27s4.74,9.26,8,10.17-9-2-9-2m14.57,3.06s-5.23-3.5-9.32-11.52c-.45-.89,8.7,2.78,9.47,3.3s5.69,8.71,9.07,9.27-9.22-1.05-9.22-1.05m14.33,1.29s-5.57-2.93-10.48-10.48c-.54-.83,9,1.85,9.77,2.28s6.57,8.08,10,8.28-9.28-.08-9.28-.08m15.63,0s-5.89-2.22-11.68-9.13c-.63-.76,9.11.75,10,1.09s7.49,7.21,10.92,7-9.22,1-9.22,1m14.67-1.73s-5.89-2.22-11.68-9.12c-.63-.76,9.11.74,10,1.07s7.5,7.22,10.93,7-9.23,1.05-9.23,1.05M302.91,97.34s-.19,6.29-4.83,14c-.5.85-2.25-8.86-2.22-9.79s4.38-9.44,3.06-12.6,4,8.37,4,8.37m-7.35-12.27s.36,6.29-3.59,14.39c-.43.89-3-8.63-3.06-9.56s3.54-9.78,1.94-12.82,4.71,8,4.71,8m-8.49-11.39s1,6.22-2.06,14.68c-.34.93-3.91-8.27-4.06-9.18s2.5-10.1.6-13,5.52,7.46,5.52,7.46m-9.62-10.79s1.56,6.1-.77,14.8c-.26,1-4.61-7.89-4.84-8.79s1.61-10.28-.53-13,6.14,7,6.14,7m-11.14-10.6s2.5,5.79,1.55,14.75c-.1,1-5.79-7.08-6.15-7.93s0-10.41-2.56-12.72,7.16,5.9,7.16,5.9m-11.14-8.9S258,49,257.5,58c-.06,1-6.15-6.77-6.57-7.6s-.56-10.39-3.21-12.56,7.45,5.51,7.45,5.51m-13.49-8.56S245.23,40,246,49c.08,1-7-5.84-7.56-6.6s-2-10.21-4.93-12,8.15,4.42,8.15,4.42m-14.19-7.12s4.16,4.73,6,13.54c.22,1-7.68-4.94-8.29-5.64s-3.23-9.89-6.37-11.3,8.64,3.4,8.64,3.4m-13.8-5.33s4.47,4.43,7,13.1c.27,1-8-4.39-8.68-5s-3.91-9.64-7.13-10.83,8.85,2.78,8.85,2.78m-14.62-3.61s4.85,4,8.07,12.44c.36.92-8.37-3.68-9.08-4.28s-4.74-9.26-8.05-10.17,9.06,2,9.06,2m-15.66-2s5.35,3.31,9.72,11.19c.48.86-8.8-2.48-9.59-3s-6-8.51-9.38-8.95,9.25.73,9.25.73M167.8,15.45s5.68,2.73,10.84,10.11c.57.81-9-1.54-9.84-1.95S162,15.77,158.53,15.7s9.27-.25,9.27-.25m-13.78.3s5.67,2.73,10.84,10.11c.56.81-9-1.54-9.85-1.95s-6.84-7.84-10.27-7.92,9.28-.24,9.28-.24m-15.44,2s6.09,1.6,12.57,7.86c.71.69-9.13.2-10,0s-8.21-6.39-11.6-5.82,9.06-2,9.06-2m-14.67,3.82s6.2,1.06,13.21,6.73c.77.63-9.09,1-10,.84s-8.74-5.65-12.06-4.78,8.85-2.79,8.85-2.79m-14,4.75s6.25.73,13.54,6c.8.58-9,1.48-9.94,1.36s-9-5.18-12.29-4.14S110,26.33,110,26.33M97.21,32.39s6.3.19,14,4.83c.85.51-8.86,2.25-9.79,2.22S92,35.06,88.84,36.38s8.37-4,8.37-4M84.85,39.73s6.28-.48,14.44,3.33c.9.42-8.57,3.17-9.5,3.23S80,42.93,76.94,44.57s7.91-4.84,7.91-4.84M73.38,47.88S79.61,47,88,50.2c.93.35-8.33,3.76-9.25,3.89s-10-2.68-12.94-.82,7.55-5.39,7.55-5.39M62.26,57.25s6.07-1.66,14.81.52c1,.24-7.81,4.75-8.71,5s-10.3-1.43-13,.76,6.85-6.27,6.85-6.27M52.17,67.35s5.94-2.08,14.81-.51c1,.17-7.46,5.28-8.34,5.58s-10.37-.7-12.86,1.66,6.39-6.73,6.39-6.73M43,78.93s5.69-2.69,14.68-2.06c1,.07-6.87,6-7.71,6.42s-10.4.39-12.62,3S43,78.93,43,78.93M19.29,206.74s1.7-6.06,8.07-12.43c.7-.7.05,9.14-.2,10s-6.54,8.1-6,11.49-1.85-9.09-1.85-9.09M17,191.57s2-6,8.71-12c.74-.66-.43,9.14-.73,10s-6.94,7.75-6.61,11.16S17,191.57,17,191.57M35.17,91.21s5.26-3.46,14.25-4.08c1-.07-6,6.93-6.74,7.43S32.44,96.39,30.6,99.29s4.57-8.08,4.57-8.08M28.55,104s4.81-4.07,13.65-5.79c1-.19-5.08,7.61-5.79,8.2s-9.94,3.06-11.41,6.17S28.55,104,28.55,104m-5.21,13.52s4.43-4.48,13.09-7c1-.28-4.39,8-5,8.67s-9.64,3.92-10.83,7.14,2.78-8.85,2.78-8.85M19,131.73s3.93-4.91,12.29-8.28c.91-.38-3.53,8.43-4.12,9.15s-9.17,4.9-10,8.23,1.85-9.1,1.85-9.1M16.49,145.9s3.4-5.3,11.36-9.53c.87-.47-2.63,8.75-3.13,9.53s-8.62,5.83-9.12,9.23.89-9.23.89-9.23m-1.41,15.56s2.73-5.68,10.11-10.84c.81-.57-1.54,9-2,9.84s-7.84,6.84-7.92,10.27-.24-9.27-.24-9.27m.44,14.77s2.73-5.68,10.11-10.84c.81-.58-1.54,9-1.95,9.84s-7.83,6.84-7.91,10.27-.25-9.27-.25-9.27"/><path class="cls-2" d="M68.8,169.34A99.23,99.23,0,1,1,168,268.56,99.22,99.22,0,0,1,68.8,169.34"/><rect class="cls-1" x="13.99" y="14.37" width="306.01" height="306.34"/><g class="cls-4"><polygon class="cls-5" points="273.47 135.44 208.65 182.57 233.57 259.1 168.61 211.84 103.52 259.1 128.44 182.57 63.76 135.44 143.69 135.44 168.61 59.32 193.4 135.44 273.47 135.44"/><polygon class="cls-6" points="257.55 140.25 202.41 180.33 223.61 245.44 168.35 205.24 112.97 245.44 134.18 180.33 79.15 140.25 147.15 140.25 168.35 75.49 189.43 140.25 257.55 140.25"/><path class="cls-5" d="M84.63,140.13,81,142.79,78.53,141l1.18-.86Zm84.8-61.9L166,80.74l1.44-4.41,1.11-.8Z"/><path class="cls-5" d="M92.37,140.14l-7.48,5.48L82.7,144,88,140.14Zm78.48-57.57-7.17,5.25,1.38-4.2L170,80Z"/><path class="cls-5" d="M99.68,140.13l-11.15,8.14-2.19-1.59,9-6.55Zm72.64-53-11,8.07L162.64,91l8.85-6.45Z"/><path class="cls-5" d="M107.61,140.14l-15.11,11-2.27-1.65L103,140.14Zm66.22-48.41-15,11,1.51-4.61,12.58-9.22Z"/><path class="cls-5" d="M115.45,140.13,96.42,154,94,152.24l16.64-12.11Zm59.9-43.72-19,13.89,1.46-4.47L174.47,93.7Z"/><path class="cls-5" d="M123.08,140.13,100.3,156.85l-2.18-1.59,20.61-15.13Zm53.68-39.38L154,117.47l1.37-4.2,20.57-15.09Z"/><path class="cls-5" d="M130.8,140.14l-26.74,19.45-2.29-1.67,24.36-17.78Zm47.53-34.58-26.85,19.53,1.49-4.54,24.43-17.84Z"/><path class="cls-5" d="M139.23,140.14,108.32,162.7l-2.58-1.88L134,140.14Zm40.69-29.7-31.07,22.67,1.64-5,28.42-20.77Z"/><polygon class="cls-5" points="181.34 114.79 112.19 165.51 109.66 163.67 141.9 140.14 146.56 140.14 148.02 135.67 180.43 112.01 181.34 114.79"/><polygon class="cls-5" points="182.81 119.31 115.86 168.19 113.67 166.59 181.97 116.74 182.81 119.31"/><polygon class="cls-5" points="184.32 123.94 119.83 171.08 117.53 169.41 183.39 121.09 184.32 123.94"/><polygon class="cls-5" points="185.84 128.61 123.75 173.93 121.32 172.16 184.95 125.89 185.84 128.61"/><polygon class="cls-5" points="187.26 132.97 127.6 176.74 125.42 175.15 186.42 130.4 187.26 132.97"/><polygon class="cls-5" points="188.73 137.49 131.29 179.42 129.1 177.83 187.89 134.92 188.73 137.49"/><polygon class="cls-5" points="192.95 140.13 132.17 184.56 133.35 180.93 132.94 180.63 189.31 139.28 189.59 140.13 192.95 140.13"/><polygon class="cls-5" points="200.88 140.13 129.72 192.07 131.23 187.42 196.26 140.13 200.88 140.13"/><polygon class="cls-5" points="208.89 140.13 127.22 199.74 128.67 195.29 203.86 140.13 208.89 140.13"/><polygon class="cls-5" points="215.93 140.13 125.03 206.48 126.39 202.3 211.56 140.13 215.93 140.13"/><polygon class="cls-5" points="224.48 140.13 122.48 214.32 123.89 209.98 219.58 140.13 224.48 140.13"/><polygon class="cls-5" points="231.91 140.13 119.87 222.32 121.65 216.87 227.16 140.13 231.91 140.13"/><polygon class="cls-5" points="239.71 140.13 117.61 229.26 118.97 225.08 235.35 140.13 239.71 140.13"/><polygon class="cls-5" points="246.91 140.13 115.16 236.78 116.53 232.59 242.56 140.13 246.91 140.13"/><polygon class="cls-5" points="255.38 140.13 112.89 243.76 114.28 239.49 250.4 140.13 255.38 140.13"/><polygon class="cls-5" points="203.61 183.43 170.31 207.86 168.13 206.27 111.78 247.18 258.18 140.14 258.91 140.14 202.79 180.93 203.61 183.43"/><polygon class="cls-5" points="205.07 187.92 174.04 210.57 171.85 208.98 204.23 185.34 205.07 187.92"/><polygon class="cls-5" points="206.58 192.56 177.99 213.45 175.66 211.75 205.66 189.74 206.58 192.56"/><polygon class="cls-5" points="208.1 197.22 181.94 216.31 179.55 214.58 207.2 194.47 208.1 197.22"/><polygon class="cls-5" points="209.63 201.95 185.95 219.24 183.76 217.64 208.8 199.37 209.63 201.95"/><polygon class="cls-5" points="211.06 206.35 189.74 221.99 187.29 220.21 210.15 203.52 211.06 206.35"/><polygon class="cls-5" points="212.6 211.06 193.65 224.84 191.3 223.13 211.69 208.25 212.6 211.06"/><polygon class="cls-5" points="214.1 215.65 197.63 227.73 195.25 226 213.2 212.89 214.1 215.65"/><polygon class="cls-5" points="215.55 220.12 201.39 230.46 199.2 228.88 214.71 217.55 215.55 220.12"/><polygon class="cls-5" points="216.99 224.53 205.16 233.21 202.97 231.62 216.15 221.96 216.99 224.53"/><polygon class="cls-5" points="218.52 229.23 209.1 236.08 206.74 234.36 217.61 226.43 218.52 229.23"/><polygon class="cls-5" points="220.02 233.84 213.05 238.95 210.69 237.23 219.12 231.07 220.02 233.84"/><polygon class="cls-5" points="221.47 238.3 216.82 241.69 214.63 240.1 220.64 235.73 221.47 238.3"/><polygon class="cls-5" points="223.01 243.03 220.83 244.62 218.4 242.84 222.07 240.14 223.01 243.03"/><polygon class="cls-5" points="222.17 245.59 223.53 244.6 224.37 247.18 222.17 245.59"/><polygon class="cls-6" points="170.08 168.74 259.77 139.75 190.31 139.75 170.08 168.74"/><polygon class="cls-6" points="168.68 170.34 225.29 247.94 203.31 180.98 168.68 170.34"/><polygon class="cls-6" points="168.26 171.09 168.24 206.74 111.84 247.51 168.26 171.09"/><polygon class="cls-6" points="168.3 169.66 77.71 139.55 133.91 181.13 168.3 169.66"/><polygon class="cls-6" points="146.69 139.58 168.2 168.9 168.2 74.38 146.69 139.58"/></g><path class="cls-5" d="M225.6,179.66c.81,4.22,2.87,15,3.39,17.71l-7.33,8.06L214,196.82c.51-2.65,2.49-13,3.29-17.16Zm-4.27-22.06c1.16,5.37,1.79,8.26,2.35,10.83h-4.41l2.06-10.83m12.72-37.28H206l8.69,10.91c-.67,3.29-12.65,63.22-13,65.16L189.6,210h27.89l0,0h41.4l-11.78-13.14c-.4-1.89-13.48-62-14.27-65.66l10.07-10.93Z"/><path class="cls-2" d="M160.14,169.16h17v37.55l-8.6,7.75c-.24-.23-6.6-6-8.45-7.7,0-2.86,0-31.47,0-37.6m8.22-55.45.42-.38,8.36,7.85c0,2.76,0,28,0,34l-17,0V121.19l8.27-7.48M200.61,107H127.16l15.14,14.22v85.58L128,220.25H210l-15.08-13.51V121.18L210.65,107Z"/><path class="cls-5" d="M116.88,133.29c2.46,1.76,3.7,5.41,3.7,10.85v.24c0,4.88-1.32,8.4-3.81,10.46a12.33,12.33,0,0,1-7.55,2.42V132.14c2.46-.41,5.52-.39,7.66,1.15m.9-12.57h-36l11,11.86c0,2.84-.11,62.8-.11,65.67L81.74,209.76h38l-10.45-11.64V169.66c3.82.48,9.12.58,13.33-1.58l.35-.16c9.24-4.12,14-12.49,14-24.89.09-15-12-21.1-18.48-22.25l-.34-.06Z"/><path class="cls-7" d="M214.12,175.79H228.8l4.35,22.75-6.94,7.64h24l-6.67-7.46L228.6,130.11l5.45-5.92h-20l4.8,6-13.59,67.95-7.08,8h18.94l-7.26-8.2Zm.48-3.5,6.48-34.06,7.4,34.06H214.6"/><polygon class="cls-8" points="180.96 159.06 181.01 119.51 171.77 110.83 200.61 110.83 191.06 119.47 191.06 208.46 199.89 216.37 172.2 216.37 181.01 208.43 181.01 165.3 156.28 165.29 156.22 208.47 164.91 216.38 137.72 216.38 146.16 208.44 146.16 119.52 136.93 110.84 165.77 110.84 156.22 119.48 156.22 159.14 180.96 159.06"/><path class="cls-7" d="M96.61,131.07l-6-6.49h27.17s15.39,2.76,15.31,18.42c-.1,17.54-10.53,20.73-12.29,21.63-5.87,3-15.43.35-15.43.35V199.6l5.65,6.29H90.73l5.76-6.1Zm8.74-1.94v31.73s19,3.75,19.1-16.45-15.45-16.55-19.1-15.28"/><path class="cls-9" d="M70.07,167.09a96.67,96.67,0,1,1,96.67,96.68A96.67,96.67,0,0,1,70.07,167.09Z"/><path class="cls-10" d="M65.47,167.54A101.53,101.53,0,1,1,167,269.07,101.54,101.54,0,0,1,65.47,167.54Z"/><path class="cls-2" d="M90,265.24c3.69-4.23,3.54-9,.44-11.68-2.17-1.89-5.7-2.84-9.8,1.87-3.42,3.93-4,8.93-.34,12.1,1.32,1.15,4.94,3.18,9.7-2.29m-12.48-11.5c2.82-3.24,8.59-5.55,14.26-.6,4.7,4.1,5.24,9.39,1.47,13.71s-9.77,5.11-14.57.93c-5.42-4.73-4.07-10.7-1.16-14"/><path class="cls-2" d="M98.26,268c1.94-3.29,2.3-3.89,2.66-4.6s.42-1.21-.2-1.78a4.68,4.68,0,0,0-.8-.56c-.24-.14-.34-.26-.25-.41s.26-.11.58.08c1.15.68,2.47,1.55,3.12,1.93s1.91,1,2.69,1.5c.32.2.44.33.36.48s-.25.12-.46,0a4.64,4.64,0,0,0-.67-.31c-.64-.23-1,0-1.52.76s-.81,1.27-2.75,4.55l-1.79,3c-1.85,3.13-2,4.81-1.45,6.3a4.69,4.69,0,0,0,2.17,2.48,4.89,4.89,0,0,0,3.67.59c1.88-.48,3.1-2.38,4.41-4.61l1.6-2.69c1.93-3.28,2.29-3.88,2.66-4.6s.42-1.2-.2-1.78a5.26,5.26,0,0,0-.74-.52c-.24-.14-.34-.26-.25-.41s.26-.11.56.07c1.1.65,2.43,1.52,2.44,1.53.26.16,1.66.9,2.5,1.4.31.17.43.3.34.46s-.24.11-.5,0a3.76,3.76,0,0,0-.67-.3c-.64-.24-1,0-1.52.75s-.81,1.27-2.75,4.55l-1.36,2.31c-1.42,2.39-3.16,4.8-5.89,5.28a7.55,7.55,0,0,1-5.41-1.1A8.13,8.13,0,0,1,94.93,278c-.51-1.65-.39-3.73,1.46-6.86Z"/><path class="cls-2" d="M112.48,288.71c-.31-.31-.33-.45-.12-1,.52-1.28,1.18-2.64,1.35-3s.34-.57.52-.49.15.3.08.49A5.2,5.2,0,0,0,114,286a3.45,3.45,0,0,0,2.37,3.69,3,3,0,0,0,4.19-1.38c.46-1.14.55-2.37-.77-4.64l-.73-1.27c-1.74-3-2-5-1.2-6.9,1-2.55,3.92-3.52,7.15-2.21A12,12,0,0,1,128,275c.19.13.28.25.22.41s-.49.94-1.23,2.75c-.21.51-.35.67-.54.59s-.17-.23-.06-.51a3.11,3.11,0,0,0,0-1.78,3.17,3.17,0,0,0-2.07-2.16c-1.72-.7-3.17-.13-3.73,1.26-.44,1.08-.23,2.1,1.1,4.35l.45.75c1.91,3.29,2.3,5.26,1.41,7.47a5.06,5.06,0,0,1-3.83,3.15,7.31,7.31,0,0,1-4.07-.54,8.69,8.69,0,0,1-3.15-2"/><path class="cls-2" d="M137,279.06l-3.65-.81c-1.42-.31-2-.33-2.53.11a3.09,3.09,0,0,0-.63.74c-.1.19-.19.27-.34.23s-.19-.18-.12-.44,1.12-2.49,1.22-2.67.26-.42.4-.39.38.36,1,.56,1.6.53,2.4.73l9.63,2.43a10.85,10.85,0,0,0,2.39.34c.17.05.16.2.06.57s-.62,2.16-.78,2.79c-.08.24-.17.37-.32.34s-.21-.19-.14-.56l0-.27c.11-.64-.37-1.49-2.52-2.08l-3-.85-2.52,10c-.56,2.23-1.05,4.15-1.19,5.23-.09.69-.08,1.27.62,1.55.33.13.85.31,1.21.41s.38.17.34.29-.25.19-.52.12c-1.6-.4-3.11-.86-3.79-1s-2.11-.45-3.09-.7c-.31-.08-.46-.19-.42-.37s.15-.17.44-.09a3.78,3.78,0,0,0,.9.12c.51,0,.79-.47,1-1.16.38-1,.86-2.9,1.43-5.14Z"/><path class="cls-2" d="M162.4,291.58c.49-5.59-2.42-9.34-6.51-9.7-2.87-.26-6.29,1.05-6.83,7.27-.46,5.19,2,9.56,6.83,10,1.75.15,5.87-.34,6.51-7.56m-16.86-2c.38-4.26,3.69-9.53,11.18-8.87,6.21.55,9.76,4.52,9.26,10.23a9.91,9.91,0,0,1-11.24,9.32c-7.17-.63-9.59-6.26-9.2-10.68"/><path class="cls-2" d="M171.75,297.13c.21,1.95.59,2.57,1.11,2.7a3.9,3.9,0,0,0,1.31.06c.27,0,.43,0,.44.17s-.2.27-.55.3c-1.63.14-2.63.14-3.1.18-.23,0-1.4.2-2.69.31-.33,0-.55,0-.58-.2s.14-.22.39-.23a4.46,4.46,0,0,0,1.11-.22c.64-.26.67-1,.51-3.17l-1-14.8c0-.5,0-.85.25-.88s.53.29,1,.7c.32.3,4.47,4.05,8.42,7.35,1.84,1.56,5.52,4.86,6,5.23h.12l-1.2-11.19c-.16-1.52-.42-2-1-2.18a4.6,4.6,0,0,0-1.33,0c-.3,0-.41,0-.42-.18s.26-.25.63-.28c1.3-.12,2.51-.15,3-.19.28,0,1.22-.18,2.44-.28.33,0,.57,0,.59.18s-.13.23-.43.26a2.73,2.73,0,0,0-.74.14c-.68.26-.84.8-.74,2.2l1.07,15.78c0,.55,0,.78-.26.79s-.6-.22-.89-.47c-1.71-1.36-5.18-4.36-8-6.71s-6-5.35-6.48-5.79h-.07Z"/><path class="cls-2" d="M194.27,294c.22-.05.32.06.74.48a2.52,2.52,0,0,1,.81,1.17,4,4,0,0,1-.07,1.24,14.81,14.81,0,0,1-1.24,3.67c-.15.18-.21.35-.36.38s-.22-.08-.25-.2.09-.32.11-.46a4.38,4.38,0,0,0,.26-2.28c-.3-1.4-1.41-1.57-1.48-1.92a2.08,2.08,0,0,1,1.48-2.08"/><path class="cls-2" d="M207.6,275.6,204.16,277c-1.33.58-1.85.92-2,1.57a3,3,0,0,0-.08,1c0,.2,0,.32-.15.38s-.25,0-.35-.29-.53-2.68-.56-2.88,0-.5.11-.55a7,7,0,0,0,1.11-.12,22.07,22.07,0,0,0,2.38-.79l9.25-3.6a10.51,10.51,0,0,0,2.15-1.11c.17-.06.24.08.38.43s.75,2.12,1,2.73c.07.24.08.4-.06.46s-.28,0-.44-.37l-.12-.25c-.28-.59-1.17-1-3.27-.23l-3,1.07,3.73,9.58c.83,2.15,1.55,4,2.06,4.95.33.62.66,1.09,1.4.91a9.65,9.65,0,0,0,1.23-.38c.26-.09.4-.07.45.05s-.1.3-.36.4c-1.53.6-3,1.1-3.69,1.36s-2,.85-2.91,1.21c-.31.12-.5.12-.56-.05s0-.22.3-.33a3.62,3.62,0,0,0,.8-.42c.44-.28.37-.84.18-1.55-.26-1-1-2.87-1.82-5Z"/><path class="cls-2" d="M223.91,274.73c-1.88-3.31-2.23-3.92-2.67-4.59s-.84-1-1.64-.71a5.63,5.63,0,0,0-.89.42c-.24.14-.4.17-.48,0s0-.29.36-.48c1.16-.65,2.57-1.37,3.17-1.72s5-2.87,5.43-3.12a7.48,7.48,0,0,0,.86-.67,4.11,4.11,0,0,1,.3-.29c.11-.06.18,0,.24.13s.13.47.64,1.51c.1.23.6,1.21.71,1.5,0,.12.07.28-.08.36s-.26,0-.37-.19a2.78,2.78,0,0,0-.58-.71c-.38-.3-.74-.44-1.91.05-.39.17-2.7,1.43-3.14,1.68-.1.06-.11.15,0,.3l3.14,5.51c.09.15.16.23.29.15.48-.27,3-1.7,3.46-2s.78-.6.85-.93.08-.41.19-.48a.18.18,0,0,1,.26.09,16.3,16.3,0,0,0,.73,1.69c.2.46.66,1.36.74,1.51s.24.41,0,.52a.2.2,0,0,1-.31-.08,5.52,5.52,0,0,0-.53-.74c-.36-.37-.85-.52-1.7-.15-.44.19-2.61,1.4-3.13,1.7-.11.06-.08.16,0,.29l1,1.72c.43.75,1.55,2.76,1.93,3.38.9,1.47,1.44,1.6,3.66.33a6.48,6.48,0,0,0,1.89-1.42,2.12,2.12,0,0,0,.06-2.18c-.09-.26-.1-.37.05-.46s.28.07.4.29a19.58,19.58,0,0,1,1.1,2.58c.17.65,0,.77-.86,1.24-3.28,1.87-4.81,2.57-6.1,3.31-.5.29-1.83,1.13-2.7,1.63-.29.16-.48.18-.56,0s0-.22.25-.37a3.83,3.83,0,0,0,.73-.54c.39-.33.22-.88-.05-1.55-.42-1-1.39-2.7-2.54-4.7Z"/><path class="cls-2" d="M244.23,262.68c1.39.47,8.79,3.28,9.77,3.52a2.65,2.65,0,0,0,1.8-.07,3.19,3.19,0,0,0,.84-.47c.13-.12.28-.16.38-.05s0,.32-.22.5l-.59.46c-.47.37-2,1.6-3.57,2.76-.53.38-.72.47-.83.33s0-.26.11-.44,0-.33-.32-.48c-2.6-1.07-5.26-2.13-7.33-2.9l.8,7a1.82,1.82,0,0,0,.38,1.05.55.55,0,0,0,.63,0,5.05,5.05,0,0,0,.49-.32.27.27,0,0,1,.38,0c.1.13,0,.29-.26.49l-.36.28c-.11.09-1.4,1-1.89,1.4s-1.29,1.11-1.6,1.36l-.34.27c-.19.15-.34.17-.44.05s0-.27.14-.39a3.8,3.8,0,0,0,.65-.67c.45-.61.53-1.28.45-2.76l-.49-8.33L235,262.37a3.72,3.72,0,0,0-2.79-.19,3.53,3.53,0,0,0-.93.52.23.23,0,0,1-.35,0c-.1-.13,0-.27.26-.47.48-.37,2.11-1.58,3-2.3.28-.22,1.33-1.15,2.06-1.73.27-.21.42-.27.53-.13s0,.27-.16.41a2.47,2.47,0,0,0-.47.49.43.43,0,0,0,0,.51,1.85,1.85,0,0,0,.64.41c2.09.91,4.11,1.65,5.94,2.38-.12-1.32-.47-5.48-.61-6.26a2.23,2.23,0,0,0-.37-.92.55.55,0,0,0-.62-.09,3.11,3.11,0,0,0-.67.44c-.12.09-.27.14-.38,0s0-.29.28-.51c.76-.61,1.64-1.2,2-1.49s1.15-1,1.88-1.58c.22-.17.4-.22.49-.11s0,.27-.17.43a3.53,3.53,0,0,0-.62.68c-.35.47-.31,1.34-.22,2.67Z"/><path class="cls-2" d="M259.66,251.85c.08-.09,0-.16,0-.19l-6.06-2.59c-.09,0-.2-.12-.25-.07s0,.18.06.27l2.92,5.9c.05.08.13.12.19.05Zm-2.58,4.59c-.09.09-.09.16,0,.3l1.68,3.44a5.32,5.32,0,0,0,.86,1.32c.33.31.72.37,1.26-.2l.25-.27c.21-.22.3-.24.41-.14s.08.28-.11.48c-.55.59-1.34,1.32-1.87,1.89-.19.2-1.08,1.26-2,2.2-.23.24-.36.32-.51.18s-.08-.21.06-.36.37-.44.49-.6c.68-.94.39-1.87-.19-3.09l-7.17-15.36c-.32-.71-.42-1-.25-1.2s.42-.11,1,.1c1.42.5,11.62,4.57,15.49,6,2.3.84,3.05.55,3.51.26a6.3,6.3,0,0,0,.79-.7c.14-.15.24-.22.37-.1s0,.33-.61,1-1.87,2-3.28,3.42c-.32.31-.53.53-.65.41s-.08-.21.07-.41a.41.41,0,0,0-.26-.56l-5.25-2.17a.24.24,0,0,0-.3.06Z"/><path class="cls-2" d="M272.83,247.91c-.37.22-.52.21-1-.11-1.12-.8-2.28-1.76-2.6-2s-.47-.46-.35-.62.32-.07.49,0a4.91,4.91,0,0,0,1.17.55,3.43,3.43,0,0,0,4.14-1.44,3,3,0,0,0-.37-4.39c-1-.72-2.18-1.09-4.69-.33l-1.41.41c-3.35,1-5.33.75-7-.43-2.24-1.6-2.51-4.62-.49-7.46a12.24,12.24,0,0,1,2.29-2.47c.16-.15.3-.21.44-.11s.8.69,2.39,1.83c.45.32.57.5.45.66s-.26.12-.51-.06a3,3,0,0,0-1.72-.43,3.2,3.2,0,0,0-2.59,1.51c-1.08,1.51-.86,3.06.37,3.93.94.67,2,.71,4.48-.07l.84-.26c3.64-1.09,5.65-1,7.58.36a5,5,0,0,1,2.18,4.45,7.16,7.16,0,0,1-1.47,3.84,8.65,8.65,0,0,1-2.66,2.61"/><path class="cls-2" d="M46.85,200.64c-3.69.93-4.37,1.1-5.14,1.34s-1.15.55-1.12,1.39a4.54,4.54,0,0,0,.16,1c.07.27,0,.43-.12.47s-.26-.11-.35-.48c-.32-1.29-.63-2.84-.8-3.52-.25-1-.67-2.38-.95-3.5-.76-3.05,0-4.39.26-4.87a4.33,4.33,0,0,1,2.59-1.94A5.89,5.89,0,0,1,48.75,195a2.51,2.51,0,0,1,.1.52c0,.13,0,.31-.14.35s-.31-.1-.44-.61c-.34-1.37-2.34-2.88-4.82-2.26a4.84,4.84,0,0,0-3.29,2.34,3.75,3.75,0,0,0-.34,2.67,3.33,3.33,0,0,0,.33.92c.08.11.24.15.51.08l9.73-2.42c2.24-.56,4.16-1,5.17-1.42.66-.25,1.16-.52,1.08-1.27,0-.36-.13-.91-.21-1.27s0-.41.09-.44.3.13.36.4c.4,1.61.71,3.16.87,3.79s.59,2.07.83,3.05c.08.31.05.5-.12.54s-.22-.05-.29-.34a4.44,4.44,0,0,0-.31-.85c-.22-.46-.79-.45-1.52-.37-1.05.13-3,.61-5.21,1.17Z"/><path class="cls-2" d="M44.7,169.16c-5.6.43-8.83,3.92-8.51,8,.22,2.87,2.07,6,8.29,5.54,5.2-.4,9.1-3.58,8.73-8.38-.13-1.75-1.29-5.73-8.51-5.18m.82,17c-4.28.33-10-2.07-10.59-9.57-.48-6.22,2.85-10.37,8.57-10.81a9.92,9.92,0,0,1,11,9.56c.55,7.18-4.6,10.48-9,10.82"/><path class="cls-2" d="M44.5,156.76c.27,0,.38,0,.47-.18a6.48,6.48,0,0,0,.44-1.87,2.59,2.59,0,0,0-.25-1.81,4.44,4.44,0,0,0-3.6-1.84c-3.54-.34-4.79,1.9-4.94,3.37a5.57,5.57,0,0,0,0,1.33c0,.18.13.24.33.26Zm-2.26,2.75c-3.79-.37-4.48-.44-5.29-.46s-1.27.12-1.53.93a4.88,4.88,0,0,0-.16,1c0,.28-.1.42-.27.41s-.21-.2-.17-.57c.13-1.33.36-2.89.41-3.41.08-.85.19-2.76.26-3.53A8,8,0,0,1,37,149.36,4.35,4.35,0,0,1,40.6,148c1.84.19,3.46,1.12,5.26,3.84,3-1.94,5.4-3.45,7.09-4.77a5,5,0,0,0,2-2.63,3.66,3.66,0,0,0,.14-.69c0-.2.1-.29.23-.28s.23.2.2.5l-.23,2.37a5.06,5.06,0,0,1-.73,2.62c-.68,1-1.94,1.85-4,3.06-1.47.86-3.28,1.85-3.69,2.13a.52.52,0,0,0-.21.44l-.26,2.16c0,.13,0,.21.18.22l.35,0c2.31.22,4.28.41,5.34.39.74,0,1.3-.1,1.47-.84a10.82,10.82,0,0,0,.22-1.21c0-.2.1-.29.23-.28s.23.2.2.52c-.14,1.45-.4,3.29-.43,3.66s-.13,2-.22,3c0,.33-.13.49-.3.48s-.19-.13-.16-.42a5.27,5.27,0,0,0,0-.91c-.06-.51-.59-.69-1.31-.86-1-.23-3-.41-5.3-.64Z"/><path class="cls-2" d="M39.84,136.13,39,139.78c-.3,1.42-.33,2,.11,2.53a3,3,0,0,0,.75.62c.19.1.27.2.23.34s-.18.19-.45.13-2.48-1.12-2.66-1.21-.43-.27-.39-.41.35-.38.55-1,.53-1.6.73-2.4l2.4-9.63a11,11,0,0,0,.34-2.4c0-.16.19-.15.56-.06s2.17.62,2.8.77c.24.09.37.18.34.32s-.19.21-.56.15l-.27,0c-.64-.1-1.49.38-2.08,2.53l-.84,3.05,10,2.49c2.24.55,4.16,1,5.24,1.18.7.09,1.27.08,1.55-.63a11.43,11.43,0,0,0,.4-1.21c.07-.27.17-.37.29-.34s.2.25.13.52c-.4,1.61-.85,3.12-1,3.8s-.45,2.11-.7,3.08c-.07.32-.19.47-.36.43s-.17-.15-.1-.44a3.78,3.78,0,0,0,.12-.9c0-.51-.47-.79-1.16-1-1-.38-2.91-.85-5.15-1.42Z"/><path class="cls-2" d="M61.85,103.92c-5-2.61-9.56-1.36-11.47,2.28-1.34,2.55-1.44,6.21,4.09,9.1,4.61,2.42,9.61,1.79,11.85-2.47.81-1.56,1.94-5.55-4.47-8.91m-8.3,14.8c-3.8-2-7.39-7.06-3.9-13.72,2.9-5.53,7.92-7.28,13-4.62s7.24,8.32,4.29,14c-3.34,6.37-9.46,6.44-13.39,4.38"/><path class="cls-2" d="M69.7,95.51c1.94,1.43,3.45,2.54,4.37,3.07.63.37,1.17.57,1.69,0a9.41,9.41,0,0,0,.83-1c.19-.26.31-.3.41-.22s.1.29-.12.59c-.94,1.27-1.94,2.5-2.33,3s-1.26,1.84-1.83,2.6c-.21.29-.35.4-.51.28s-.1-.2.06-.42a3.64,3.64,0,0,0,.46-.79c.21-.46-.16-.89-.68-1.4-.77-.73-2.29-1.84-4.22-3.27l-3.55-2.62c-3.06-2.26-3.63-2.68-4.3-3.11s-1.16-.54-1.79,0a5.4,5.4,0,0,0-.64.75c-.15.2-.3.31-.42.22s-.08-.31.14-.61c.78-1,1.77-2.27,2.21-2.86.56-.76,3.58-4.86,3.91-5.34a5.23,5.23,0,0,0,.52-.88,1.77,1.77,0,0,1,.12-.42c.06-.08.18-.08.29,0s.31.38.79.83c.18.17,1.34,1.09,1.55,1.3s.24.27.13.41-.23.11-.46,0a2.83,2.83,0,0,0-.86-.44,1.84,1.84,0,0,0-1.59.89L61.53,89.2c-.09.12-.07.22.15.39l5,3.72c.12.09.2.11.28,0l1.89-2.6c.25-.34.46-.62.65-.92a1.29,1.29,0,0,0,.27-1.13c0-.2-.09-.29,0-.41s.15-.08.27,0,.55.56,1.13,1.08c.37.34,1.27,1.07,1.41,1.17s.39.28.24.48-.26.06-.4,0a2.55,2.55,0,0,0-.72-.34,1.45,1.45,0,0,0-1.48.49c-.44.46-2,2.6-2.27,2.94-.07.1-.06.17.08.27Z"/><path class="cls-2" d="M90.26,68.82a.15.15,0,0,0,0-.23l-.34-.41c-2.47-2.9-2.92-3.43-3.48-4s-1-.8-1.74-.39a4.71,4.71,0,0,0-.8.57c-.21.18-.36.24-.47.11s0-.29.26-.51c1-.88,2.28-1.85,2.8-2.29s1.61-1.46,2.35-2.1c.27-.22.44-.3.55-.17s0,.27-.2.47a3.78,3.78,0,0,0-.5.53c-.44.53-.32,1,.22,1.69s.93,1.17,3.4,4.08l2.85,3.36c1.5,1.75,2.78,3.26,3.57,4,.51.49,1,.81,1.62.4a11.82,11.82,0,0,0,1-.75c.21-.18.35-.2.44-.11s0,.32-.23.52c-1.24,1-2.49,2-3,2.47S97,77.5,96.24,78.14c-.26.23-.45.28-.56.15s-.06-.22.17-.42a3.72,3.72,0,0,0,.63-.66c.31-.4,0-.9-.34-1.52-.59-.88-1.87-2.39-3.37-4.15l-1.42-1.68a.16.16,0,0,0-.22,0L83.84,76a.14.14,0,0,0,0,.22l1.43,1.68c1.5,1.76,2.78,3.27,3.57,4,.51.49,1,.81,1.62.4a11.82,11.82,0,0,0,1-.75c.21-.18.35-.2.43-.11s0,.32-.21.52c-1.24,1-2.5,2-3,2.47s-1.59,1.45-2.36,2.1c-.25.21-.43.27-.54.14s-.06-.22.17-.41a4.39,4.39,0,0,0,.62-.66c.32-.4.06-.91-.33-1.53-.59-.88-1.87-2.39-3.36-4.15L80,76.6c-2.47-2.9-2.92-3.43-3.48-4s-1-.79-1.75-.39a5.93,5.93,0,0,0-.79.57c-.21.18-.35.24-.47.11s0-.29.26-.51c1-.88,2.28-1.85,2.8-2.29s1.61-1.46,2.35-2.09c.27-.23.43-.31.55-.18s0,.27-.2.47a5.36,5.36,0,0,0-.51.53c-.43.53-.31,1,.22,1.68s.94,1.18,3.41,4.09l.34.4A.15.15,0,0,0,83,75Z"/><path class="cls-2" d="M113.69,56.39C111,51.48,106.45,50,102.86,52c-2.52,1.4-4.62,4.39-1.59,9.85,2.52,4.56,7,6.78,11.25,4.45,1.54-.85,4.68-3.57,1.17-9.9m-15.07,7.8c-2.08-3.75-2.29-10,4.29-13.6,5.46-3,10.62-1.73,13.4,3.29a9.9,9.9,0,0,1-4.1,14c-6.29,3.49-11.44.18-13.59-3.7"/><path class="cls-2" d="M120.71,50.32c-1.19-3.62-1.41-4.29-1.71-5s-.62-1.11-1.47-1a6,6,0,0,0-1,.24c-.26.08-.42.08-.47-.08s.1-.27.45-.39c1.26-.41,2.79-.84,3.5-1.07s2-.75,2.91-1c.35-.12.53-.13.59,0s-.07.26-.31.34a4.33,4.33,0,0,0-.67.3c-.6.33-.66.79-.43,1.64s.42,1.45,1.6,5.07l1.1,3.33c1.13,3.45,2.3,4.68,3.78,5.25a4.6,4.6,0,0,0,3.29,0,4.94,4.94,0,0,0,2.87-2.36c.88-1.74.24-3.91-.56-6.36l-1-3c-1.18-3.61-1.4-4.28-1.7-5s-.63-1.11-1.47-1a4.27,4.27,0,0,0-.88.21c-.26.09-.42.09-.47-.08s.09-.27.43-.38c1.21-.4,2.74-.82,2.76-.83.28-.09,1.76-.65,2.69-1,.33-.11.51-.12.57,0s-.07.26-.36.36a3.48,3.48,0,0,0-.67.29c-.6.33-.66.8-.43,1.65s.42,1.44,1.61,5.06l.83,2.55c.87,2.64,1.53,5.54.09,7.91a7.46,7.46,0,0,1-4.39,3.34,8.1,8.1,0,0,1-5.83.09c-1.57-.7-3-2.16-4.18-5.62Z"/><path class="cls-2" d="M143.66,55.41c-.43-.11-.52-.22-.61-.76-.23-1.36-.38-2.86-.42-3.26s0-.66.19-.69.29.18.32.38a5.28,5.28,0,0,0,.43,1.22,3.46,3.46,0,0,0,4,1.91,3.05,3.05,0,0,0,2.85-3.37c-.21-1.21-.77-2.31-3.08-3.55l-1.29-.7c-3.07-1.68-4.3-3.25-4.63-5.25-.45-2.72,1.5-5.06,4.93-5.62a11.92,11.92,0,0,1,3.36-.13c.23,0,.37.07.4.24s.07,1.05.39,3c.09.55.05.76-.15.79s-.27-.11-.32-.4a3,3,0,0,0-.91-1.53,3.19,3.19,0,0,0-2.9-.77c-1.83.31-2.76,1.56-2.52,3,.19,1.14.9,1.91,3.22,3.13l.77.4c3.35,1.81,4.71,3.28,5.1,5.63a5.06,5.06,0,0,1-1.6,4.69,7.26,7.26,0,0,1-3.77,1.66,8.68,8.68,0,0,1-3.71,0"/><path class="cls-2" d="M161.6,36l-3.73.21c-1.44.09-2,.23-2.41.8a3.38,3.38,0,0,0-.4.88c0,.21-.11.31-.26.31s-.23-.12-.24-.39.4-2.7.44-2.9.14-.48.29-.48a6,6,0,0,0,1.09.27c.73,0,1.68.08,2.51,0l9.92-.28a11.11,11.11,0,0,0,2.4-.32c.17,0,.2.14.21.52,0,.53,0,2.26,0,2.91,0,.25-.07.4-.22.41s-.25-.12-.29-.5l0-.27c-.07-.65-.77-1.33-3-1.32h-3.15L165,46.16c.07,2.31.12,4.29.28,5.36.09.7.26,1.25,1,1.33.36,0,.91.07,1.28.06s.41.06.41.19-.19.26-.47.26c-1.65,0-3.23,0-3.93,0s-2.15.13-3.16.17c-.32,0-.5-.07-.51-.24s.1-.2.4-.21a3.85,3.85,0,0,0,.9-.13c.5-.11.63-.67.68-1.4.1-1.05,0-3,0-5.34Z"/><path class="cls-2" d="M189.72,46.39c.74-5.57-2-9.45-6.09-10-2.85-.38-6.31.78-7.14,7-.68,5.17,1.63,9.65,6.4,10.28,1.74.24,5.87-.08,6.83-7.25M173,43.68c.57-4.25,4.11-9.36,11.55-8.37,6.19.82,9.56,4.93,8.81,10.62a9.91,9.91,0,0,1-11.64,8.82c-7.13-1-9.3-6.67-8.72-11.07"/><path class="cls-2" d="M198.63,54.23c-.59,1.87-.49,2.59-.07,2.92a3.91,3.91,0,0,0,1.17.59c.27.08.39.18.34.32s-.29.17-.63,0c-1.54-.53-2.46-.92-2.91-1.08-.21-.07-1.35-.38-2.59-.8-.3-.11-.51-.21-.44-.42s.21-.14.45-.06a4.31,4.31,0,0,0,1.1.25c.69,0,1-.63,1.75-2.69l5-14c.16-.47.34-.78.58-.7s.37.48.63,1,2.45,5.51,4.74,10.13c1.05,2.16,3.08,6.67,3.36,7.19l.11,0,3.41-10.72c.48-1.46.42-2-.07-2.41a4,4,0,0,0-1.21-.58c-.28-.09-.35-.2-.3-.34s.33-.12.69,0c1.23.42,2.34.88,2.84,1,.26.09,1.19.33,2.35.73.31.11.54.21.47.4s-.21.17-.5.07a2.61,2.61,0,0,0-.73-.17c-.74,0-1.09.39-1.57,1.71l-5.39,14.87c-.18.52-.35.7-.57.62s-.45-.44-.62-.79c-1-1.94-3-6.08-4.6-9.37-1.71-3.45-3.32-7.31-3.6-7.91l-.06,0Z"/><path class="cls-2" d="M233,65.35c.11.07.17,0,.19,0l1.43-6.44c0-.09.08-.21,0-.25s-.17,0-.24.1l-5.27,4c-.07.07-.09.15,0,.2Zm-5-1.69c-.11-.07-.18,0-.3,0L224.68,66a5,5,0,0,0-1.14,1.09c-.24.38-.23.78.43,1.2l.32.2c.25.16.29.24.2.37s-.26.13-.49,0c-.68-.43-1.54-1.07-2.2-1.49-.23-.15-1.44-.83-2.53-1.53-.28-.18-.37-.3-.27-.47s.2-.11.36,0a5.91,5.91,0,0,0,.69.38c1,.49,1.91,0,3-.75l13.78-9.88c.64-.45.92-.6,1.13-.47s.2.4.1,1C237.82,57.11,235.7,67.89,235,72c-.42,2.41,0,3.1.38,3.49a5.62,5.62,0,0,0,.84.65c.16.11.26.2.16.34s-.33.1-1.11-.4-2.3-1.48-4-2.6c-.37-.26-.62-.42-.53-.57s.2-.11.42,0a.4.4,0,0,0,.5-.36L232.87,67a.23.23,0,0,0-.11-.28Z"/><path class="cls-2" d="M244.39,68.5c2.55-2.84,3-3.36,3.52-4s.65-1.1.15-1.78a6,6,0,0,0-.68-.71c-.21-.19-.28-.32-.17-.45s.28,0,.57.2c1,.88,2.11,2,2.67,2.5s1.67,1.39,2.34,2c.28.25.38.4.26.53s-.26.07-.45-.09a3,3,0,0,0-.59-.43c-.59-.36-1-.18-1.65.44s-1,1.09-3.58,3.92l-2.34,2.61c-2.43,2.71-2.91,4.33-2.66,5.89A4.65,4.65,0,0,0,243.42,82a4.87,4.87,0,0,0,3.48,1.3c1.95-.1,3.51-1.73,5.23-3.65l2.09-2.33c2.55-2.84,3-3.36,3.52-4s.65-1.1.14-1.78a4.08,4.08,0,0,0-.61-.66c-.21-.18-.29-.32-.17-.45s.28-.06.54.18c.95.85,2.08,2,2.1,2,.22.2,1.44,1.2,2.17,1.85.26.24.36.39.24.52s-.26.07-.48-.13a3.72,3.72,0,0,0-.59-.43c-.59-.36-1-.18-1.65.44s-1,1.09-3.58,3.92l-1.79,2c-1.86,2.07-4,4.09-6.81,4a7.53,7.53,0,0,1-5.09-2.13,8,8,0,0,1-3-5c-.18-1.71.34-3.73,2.77-6.43Z"/><path class="cls-2" d="M267.12,82.67l-2.38-2.87c-.94-1.12-1.41-1.51-2.08-1.47a3,3,0,0,0-1,.21c-.19.08-.31.09-.41,0s0-.26.18-.43,2.4-1.28,2.59-1.36.47-.18.56-.06a6.28,6.28,0,0,0,.43,1c.39.61.94,1.39,1.45,2l6.12,7.81a10.74,10.74,0,0,0,1.69,1.74c.1.14,0,.25-.29.48s-1.83,1.34-2.34,1.74c-.21.13-.36.19-.45.07s-.06-.28.22-.53l.2-.19c.49-.44.62-1.4-.72-3.19l-1.89-2.53L261,91.48c-1.81,1.42-3.38,2.64-4.14,3.41-.51.49-.85,1-.47,1.6a11.65,11.65,0,0,0,.71,1.07c.17.21.19.36.09.44s-.32,0-.49-.22c-1-1.3-1.93-2.59-2.37-3.14s-1.39-1.66-2-2.44c-.2-.26-.25-.45-.11-.55s.21-.05.4.19a4,4,0,0,0,.64.65c.39.33.91.11,1.53-.28.9-.55,2.46-1.78,4.28-3.2Z"/><path class="cls-2" d="M277.21,109.69a.16.16,0,0,0,.23,0l.45-.26c3.32-1.88,3.93-2.22,4.61-2.66s1-.84.71-1.64a5.19,5.19,0,0,0-.42-.89c-.13-.24-.16-.4,0-.48s.28,0,.46.35c.66,1.18,1.38,2.58,1.71,3.18s1.13,1.86,1.62,2.71c.17.3.21.48.06.56s-.27,0-.42-.28a5.28,5.28,0,0,0-.42-.59c-.45-.53-.91-.49-1.7-.11s-1.34.7-4.65,2.57l-3.84,2.17c-2,1.14-3.74,2.11-4.61,2.75-.57.41-1,.82-.7,1.52a12,12,0,0,0,.54,1.16c.14.24.14.39,0,.45s-.32,0-.47-.32c-.8-1.42-1.51-2.83-1.86-3.43s-1.12-1.84-1.6-2.7c-.17-.3-.19-.49,0-.58s.22,0,.37.25a4,4,0,0,0,.53.74c.33.39.87.22,1.56,0,1-.41,2.7-1.38,4.7-2.51l1.92-1.09a.15.15,0,0,0,.07-.2L271.33,102a.14.14,0,0,0-.21,0l-1.92,1.08c-2,1.13-3.73,2.11-4.61,2.75-.57.41-1,.81-.69,1.51a8.18,8.18,0,0,0,.54,1.17c.13.24.13.38,0,.44s-.32,0-.47-.31c-.8-1.42-1.51-2.83-1.86-3.44s-1.12-1.84-1.61-2.71c-.16-.29-.18-.48,0-.56s.22,0,.37.25a4.34,4.34,0,0,0,.53.74c.34.38.87.22,1.56,0,1-.41,2.7-1.38,4.71-2.52l3.84-2.17c3.32-1.87,3.93-2.22,4.6-2.65s1-.84.71-1.64a4.72,4.72,0,0,0-.41-.89c-.14-.24-.17-.4,0-.49s.29,0,.45.35c.68,1.18,1.39,2.59,1.72,3.18s1.13,1.86,1.62,2.71c.17.31.21.49.06.57s-.27,0-.42-.28a3.71,3.71,0,0,0-.42-.59c-.44-.53-.91-.5-1.7-.11s-1.34.7-4.65,2.57l-.46.26a.15.15,0,0,0-.08.22Z"/><path class="cls-2" d="M285.08,134.09c5.32-1.8,7.58-6,6.26-9.87-.93-2.73-3.5-5.32-9.41-3.32-4.94,1.68-7.93,5.73-6.38,10.29.56,1.66,2.68,5.23,9.53,2.9m-5-16.22c4.06-1.37,10.22-.47,12.63,6.65,2,5.9-.19,10.75-5.62,12.6A9.9,9.9,0,0,1,274,130.59c-2.32-6.81,1.85-11.29,6.05-12.72"/><path class="cls-2" d="M287.79,145.53c-.27,0-.36.1-.41.29a6.92,6.92,0,0,0,0,1.92,2.47,2.47,0,0,0,.69,1.69,4.41,4.41,0,0,0,3.94.9c3.51-.53,4.18-3,4-4.48a6,6,0,0,0-.3-1.3c-.08-.16-.18-.2-.38-.17Zm1.52-3.22c3.77-.58,4.46-.68,5.25-.85s1.19-.44,1.25-1.28a5.38,5.38,0,0,0-.07-1c-.05-.27,0-.43.15-.45s.25.14.31.51c.2,1.31.36,2.88.44,3.4.13.84.49,2.72.6,3.49a8,8,0,0,1-.37,4.72,4.39,4.39,0,0,1-3.14,2.2c-1.83.27-3.64-.24-6.05-2.43-2.44,2.62-4.38,4.67-5.7,6.36a5,5,0,0,0-1.26,3,3.87,3.87,0,0,0,0,.71c0,.2,0,.3-.15.32s-.27-.13-.32-.43l-.36-2.35a5.12,5.12,0,0,1,.07-2.73c.41-1.15,1.43-2.26,3.13-3.94,1.21-1.2,2.72-2.59,3-3a.53.53,0,0,0,.11-.48L286,146a.17.17,0,0,0-.23-.16l-.35,0a53.4,53.4,0,0,0-5.27.93c-.71.18-1.24.41-1.22,1.17,0,.38,0,.93.08,1.23s0,.3-.15.32-.27-.13-.32-.45c-.22-1.44-.43-3.29-.48-3.66s-.38-2-.53-3c0-.32,0-.5.17-.53s.21.07.26.36a4.55,4.55,0,0,0,.23.88c.18.48.74.52,1.47.51,1.06,0,3-.33,5.3-.67Z"/><path class="cls-2" d="M291.5,163.42c3.81,0,4.51,0,5.31-.11s1.28-.32,1.4-.87a3.82,3.82,0,0,0,.09-.9c0-.26,0-.41.24-.41s.21.2.21.6c0,1-.05,2.53,0,3.26s.1,2.1.11,3c0,.33,0,.53-.19.53s-.26-.15-.26-.39a4.28,4.28,0,0,0-.08-.76c-.13-.67-.56-.87-1.44-.91s-1.51,0-5.31,0l-4.42.05c-2.42,0-4.4,0-5.48.16-.67.08-1.13.26-1.22,1a10.43,10.43,0,0,0-.08,1.27c0,.28-.07.41-.2.41s-.25-.2-.25-.48c0-1.65,0-3.23,0-3.91s-.1-2.15-.11-3.15q0-.5.24-.51c.13,0,.2.1.2.4a3.84,3.84,0,0,0,.12.9c.1.5.53.65,1.26.71,1.05.12,3,.1,5.46.07Z"/><path class="cls-2" d="M296.76,179.46l.31-3.72c.11-1.45.05-2.06-.46-2.5a3.32,3.32,0,0,0-.82-.52c-.2-.07-.29-.15-.27-.3s.15-.21.42-.18,2.61.77,2.81.84.45.2.44.35-.3.42-.42,1-.31,1.66-.4,2.48l-1.09,9.87a10.35,10.35,0,0,0,0,2.42c0,.17-.18.18-.55.13-.52-.05-2.23-.31-2.88-.39-.25-.05-.39-.12-.37-.26s.15-.24.53-.22h.27c.65,0,1.43-.57,1.72-2.78l.42-3.13-10.21-1.13c-2.29-.25-4.26-.48-5.34-.47-.71,0-1.28.09-1.45.83a9.69,9.69,0,0,0-.25,1.26c0,.27-.11.39-.24.38s-.23-.23-.2-.51c.18-1.64.43-3.21.51-3.9s.16-2.15.27-3.15c0-.32.13-.49.31-.47s.18.12.15.42a4.54,4.54,0,0,0,0,.91c.05.51.58.72,1.29.87,1,.24,3,.46,5.29.72Z"/><path class="cls-2" d="M282.78,195.52a5.24,5.24,0,0,0,2.69.11c.44-.07,6.62-1.91,8.11-2.42a6.21,6.21,0,0,0,2.21-1.21,2.61,2.61,0,0,0,.58-.93c.05-.2.15-.36.32-.31s.17.23.09.52-.67,2.23-.88,3c-.13.51-.32,1.53-.6,2.61-.07.25-.18.35-.32.31s-.13-.22-.13-.6a.45.45,0,0,0-.34-.46,2.59,2.59,0,0,0-.91.07c-.81.15-7.54,2-8.33,2.22.52.39,5.05,4.85,5.71,5.39a3.47,3.47,0,0,0,1.17.67.6.6,0,0,0,.74-.35c.11-.21.22-.41.36-.38s.19.18.11.48c-.21.8-.49,1.55-.67,2.25-.15.54-.49,2.16-.61,2.61-.07.27-.17.43-.32.39s-.18-.26-.11-.52a2.8,2.8,0,0,0,0-1.15,3.6,3.6,0,0,0-.84-1.62,80.1,80.1,0,0,0-6.48-6.65,5.94,5.94,0,0,0-2.33-1l-2-.52c-.39-.1-1.41-.37-2.44-.57-.72-.13-1.31,0-1.59.65a9.73,9.73,0,0,0-.42,1.18c-.07.27-.17.37-.3.34s-.19-.26-.11-.57c.41-1.53.88-3,1.05-3.69s.49-2.15.73-3c.09-.34.18-.52.38-.47s.16.17.1.44a3.52,3.52,0,0,0-.13.87c0,.51.44.87,1.13,1.11,1,.33,2,.6,2.4.71Z"/><path class="cls-2" d="M73.42,246.39a.15.15,0,0,0,.23,0l.42-.32c3-2.34,3.56-2.77,4.16-3.3s.84-1,.46-1.73a4.37,4.37,0,0,0-.54-.82c-.16-.21-.22-.36-.08-.47s.29,0,.5.27c.83,1.07,1.74,2.36,2.16,2.9s1.4,1.67,2,2.44c.21.28.28.45.14.56s-.27,0-.45-.22a5.92,5.92,0,0,0-.51-.53c-.51-.46-1-.35-1.69.15s-1.22.88-4.23,3.22l-3.48,2.71c-1.82,1.42-3.38,2.63-4.15,3.39-.51.49-.86.95-.47,1.6a8.92,8.92,0,0,0,.7,1.07c.17.22.19.36.09.44s-.32,0-.5-.24c-1-1.29-1.91-2.57-2.35-3.13s-1.38-1.66-2-2.43c-.21-.27-.26-.46-.12-.56s.22-.05.4.19a4.39,4.39,0,0,0,.63.65c.39.33.9.09,1.54-.27.91-.55,2.47-1.77,4.29-3.18l1.74-1.36a.14.14,0,0,0,0-.21l-5.87-7.55a.14.14,0,0,0-.22,0L64.52,241c-1.81,1.41-3.38,2.63-4.15,3.38-.51.5-.85,1-.47,1.61a11.65,11.65,0,0,0,.71,1.07c.17.22.18.36.08.44s-.32,0-.5-.24c-1-1.29-1.91-2.58-2.34-3.14s-1.38-1.65-2-2.44c-.2-.26-.25-.44-.11-.55s.22,0,.4.19a3.58,3.58,0,0,0,.64.65c.38.34.9.1,1.53-.27.91-.55,2.47-1.76,4.29-3.18l3.48-2.7c3-2.35,3.56-2.78,4.16-3.31s.84-1,.47-1.72a5.67,5.67,0,0,0-.54-.82c-.17-.22-.22-.37-.08-.48s.28,0,.5.28c.82,1.07,1.74,2.36,2.15,2.89s1.4,1.68,2,2.45c.22.28.28.45.15.55s-.28,0-.46-.22a3.47,3.47,0,0,0-.51-.52c-.51-.46-1-.36-1.69.14S71,236,68,238.29l-.41.32a.15.15,0,0,0,0,.22Z"/><path class="cls-2" d="M90,265.24c3.69-4.23,3.54-9,.44-11.68-2.17-1.89-5.7-2.84-9.8,1.87-3.42,3.93-4,8.93-.34,12.1,1.32,1.15,4.94,3.18,9.7-2.29m-12.48-11.5c2.82-3.24,8.59-5.55,14.26-.6,4.7,4.1,5.24,9.39,1.47,13.71s-9.77,5.11-14.57.93c-5.42-4.73-4.07-10.7-1.16-14"/><path class="cls-2" d="M98.26,268c1.94-3.29,2.3-3.89,2.66-4.6s.42-1.21-.2-1.78a4.68,4.68,0,0,0-.8-.56c-.24-.14-.34-.26-.25-.41s.26-.11.58.08c1.15.68,2.47,1.55,3.12,1.93s1.91,1,2.69,1.5c.32.2.44.33.36.48s-.25.12-.46,0a4.64,4.64,0,0,0-.67-.31c-.64-.23-1,0-1.52.76s-.81,1.27-2.75,4.55l-1.79,3c-1.85,3.13-2,4.81-1.45,6.3a4.69,4.69,0,0,0,2.17,2.48,4.89,4.89,0,0,0,3.67.59c1.88-.48,3.1-2.38,4.41-4.61l1.6-2.69c1.93-3.28,2.29-3.88,2.66-4.6s.42-1.2-.2-1.78a5.26,5.26,0,0,0-.74-.52c-.24-.14-.34-.26-.25-.41s.26-.11.56.07c1.1.65,2.43,1.52,2.44,1.53.26.16,1.66.9,2.5,1.4.31.17.43.3.34.46s-.24.11-.5,0a3.76,3.76,0,0,0-.67-.3c-.64-.24-1,0-1.52.75s-.81,1.27-2.75,4.55l-1.36,2.31c-1.42,2.39-3.16,4.8-5.89,5.28a7.55,7.55,0,0,1-5.41-1.1A8.13,8.13,0,0,1,94.93,278c-.51-1.65-.39-3.73,1.46-6.86Z"/><path class="cls-2" d="M112.48,288.71c-.31-.31-.33-.45-.12-1,.52-1.28,1.18-2.64,1.35-3s.34-.57.52-.49.15.3.08.49A5.2,5.2,0,0,0,114,286a3.45,3.45,0,0,0,2.37,3.69,3,3,0,0,0,4.19-1.38c.46-1.14.55-2.37-.77-4.64l-.73-1.27c-1.74-3-2-5-1.2-6.9,1-2.55,3.92-3.52,7.15-2.21A12,12,0,0,1,128,275c.19.13.28.25.22.41s-.49.94-1.23,2.75c-.21.51-.35.67-.54.59s-.17-.23-.06-.51a3.11,3.11,0,0,0,0-1.78,3.17,3.17,0,0,0-2.07-2.16c-1.72-.7-3.17-.13-3.73,1.26-.44,1.08-.23,2.1,1.1,4.35l.45.75c1.91,3.29,2.3,5.26,1.41,7.47a5.06,5.06,0,0,1-3.83,3.15,7.31,7.31,0,0,1-4.07-.54,8.69,8.69,0,0,1-3.15-2"/><path class="cls-2" d="M137,279.06l-3.65-.81c-1.42-.31-2-.33-2.53.11a3.09,3.09,0,0,0-.63.74c-.1.19-.19.27-.34.23s-.19-.18-.12-.44,1.12-2.49,1.22-2.67.26-.42.4-.39.38.36,1,.56,1.6.53,2.4.73l9.63,2.43a10.85,10.85,0,0,0,2.39.34c.17.05.16.2.06.57s-.62,2.16-.78,2.79c-.08.24-.17.37-.32.34s-.21-.19-.14-.56l0-.27c.11-.64-.37-1.49-2.52-2.08l-3-.85-2.52,10c-.56,2.23-1.05,4.15-1.19,5.23-.09.69-.08,1.27.62,1.55.33.13.85.31,1.21.41s.38.17.34.29-.25.19-.52.12c-1.6-.4-3.11-.86-3.79-1s-2.11-.45-3.09-.7c-.31-.08-.46-.19-.42-.37s.15-.17.44-.09a3.78,3.78,0,0,0,.9.12c.51,0,.79-.47,1-1.16.38-1,.86-2.9,1.43-5.14Z"/><path class="cls-2" d="M162.4,291.58c.49-5.59-2.42-9.34-6.51-9.7-2.87-.26-6.29,1.05-6.83,7.27-.46,5.19,2,9.56,6.83,10,1.75.15,5.87-.34,6.51-7.56m-16.86-2c.38-4.26,3.69-9.53,11.18-8.87,6.21.55,9.76,4.52,9.25,10.23s-4.89,9.88-11.23,9.32c-7.17-.63-9.59-6.26-9.2-10.68"/><path class="cls-2" d="M171.75,297.13c.21,1.95.59,2.57,1.11,2.7a3.9,3.9,0,0,0,1.31.06c.27,0,.43,0,.44.17s-.2.27-.55.3c-1.63.14-2.63.14-3.1.18-.23,0-1.4.2-2.69.31-.33,0-.55,0-.58-.2s.14-.22.39-.23a4.46,4.46,0,0,0,1.11-.22c.64-.26.67-1,.51-3.17l-1-14.8c0-.5,0-.85.25-.88s.53.29,1,.7c.32.3,4.47,4.05,8.42,7.35,1.84,1.56,5.52,4.86,6,5.23h.12l-1.2-11.19c-.16-1.52-.42-2-1-2.18a4.6,4.6,0,0,0-1.33,0c-.3,0-.41,0-.42-.18s.26-.25.63-.28c1.3-.12,2.51-.15,3-.19.28,0,1.22-.18,2.44-.28.33,0,.57,0,.59.18s-.13.23-.43.26a2.73,2.73,0,0,0-.74.14c-.68.26-.84.8-.74,2.2l1.07,15.78c0,.55,0,.78-.26.79s-.6-.22-.89-.47c-1.71-1.36-5.18-4.36-8-6.71s-6-5.35-6.48-5.79h-.07Z"/><path class="cls-2" d="M194.27,294c.22-.05.32.06.74.48a2.52,2.52,0,0,1,.81,1.17,4,4,0,0,1-.07,1.24,14.81,14.81,0,0,1-1.24,3.67c-.15.18-.21.35-.36.38s-.22-.08-.25-.2.09-.32.11-.46a4.38,4.38,0,0,0,.26-2.28c-.3-1.4-1.41-1.57-1.48-1.92a2.08,2.08,0,0,1,1.48-2.08"/><path class="cls-2" d="M207.6,275.6,204.16,277c-1.33.58-1.85.92-2,1.57a3,3,0,0,0-.08,1c0,.2,0,.32-.15.38s-.25,0-.35-.29-.53-2.68-.56-2.88,0-.5.11-.55a7,7,0,0,0,1.11-.12,22.07,22.07,0,0,0,2.38-.79l9.25-3.6a10.51,10.51,0,0,0,2.15-1.11c.17-.06.24.08.38.43s.75,2.12,1,2.73c.07.24.08.4-.06.46s-.28,0-.44-.37l-.12-.25c-.28-.59-1.17-1-3.27-.23l-3,1.07,3.73,9.58c.83,2.15,1.55,4,2.06,4.95.33.62.66,1.09,1.4.91a9.65,9.65,0,0,0,1.23-.38c.26-.09.4-.07.45.05s-.1.3-.36.4c-1.53.6-3,1.1-3.69,1.36s-2,.85-2.91,1.21c-.31.12-.5.12-.56-.05s0-.22.3-.33a3.62,3.62,0,0,0,.8-.42c.44-.28.37-.84.18-1.55-.26-1-1-2.87-1.82-5Z"/><path class="cls-2" d="M223.91,274.73c-1.88-3.31-2.23-3.92-2.67-4.59s-.84-1-1.64-.71a5.63,5.63,0,0,0-.89.42c-.24.14-.4.17-.48,0s0-.29.36-.48c1.16-.65,2.57-1.37,3.17-1.72s5-2.87,5.43-3.12a7.48,7.48,0,0,0,.86-.67,4.11,4.11,0,0,1,.3-.29c.11-.06.18,0,.24.13s.13.47.64,1.51c.1.23.6,1.21.71,1.5,0,.12.07.28-.08.36s-.26,0-.37-.19a2.78,2.78,0,0,0-.58-.71c-.38-.3-.74-.44-1.91.05-.39.17-2.7,1.43-3.14,1.68-.1.06-.11.15,0,.3l3.14,5.51c.09.15.16.23.29.15.48-.27,3-1.7,3.46-2s.78-.6.85-.93.08-.41.19-.48a.18.18,0,0,1,.26.09,16.3,16.3,0,0,0,.73,1.69c.2.46.66,1.36.74,1.51s.24.41,0,.52a.2.2,0,0,1-.31-.08,5.52,5.52,0,0,0-.53-.74c-.36-.37-.85-.52-1.7-.15-.44.19-2.61,1.4-3.13,1.7-.11.06-.08.16,0,.29l1,1.72c.43.75,1.55,2.76,1.93,3.38.9,1.47,1.44,1.6,3.66.33a6.48,6.48,0,0,0,1.89-1.42,2.12,2.12,0,0,0,.06-2.18c-.09-.26-.1-.37.05-.46s.28.07.4.29a19.58,19.58,0,0,1,1.1,2.58c.17.65,0,.77-.86,1.24-3.28,1.87-4.81,2.57-6.1,3.31-.5.29-1.83,1.13-2.7,1.63-.29.16-.48.18-.56,0s0-.22.25-.37a3.83,3.83,0,0,0,.73-.54c.39-.33.22-.88-.05-1.55-.42-1-1.39-2.7-2.54-4.7Z"/><path class="cls-2" d="M244.23,262.68c1.39.47,8.79,3.28,9.77,3.52a2.65,2.65,0,0,0,1.8-.07,3.19,3.19,0,0,0,.84-.47c.13-.12.28-.16.38-.05s0,.32-.22.5l-.59.46c-.47.37-2,1.6-3.57,2.76-.53.38-.72.47-.83.33s0-.26.11-.44,0-.33-.32-.48c-2.6-1.07-5.26-2.13-7.33-2.9l.8,7a1.82,1.82,0,0,0,.38,1.05.55.55,0,0,0,.63,0,5.05,5.05,0,0,0,.49-.32.27.27,0,0,1,.38,0c.1.13,0,.29-.26.49l-.36.28c-.11.09-1.4,1-1.89,1.4s-1.29,1.11-1.6,1.36l-.34.27c-.19.15-.34.17-.44.05s0-.27.14-.39a3.8,3.8,0,0,0,.65-.67c.45-.61.53-1.28.45-2.76l-.49-8.33L235,262.37a3.72,3.72,0,0,0-2.79-.19,3.53,3.53,0,0,0-.93.52.23.23,0,0,1-.35,0c-.1-.13,0-.27.26-.47.48-.37,2.11-1.58,3-2.3.28-.22,1.33-1.15,2.06-1.73.27-.21.42-.27.53-.13s0,.27-.16.41a2.47,2.47,0,0,0-.47.49.43.43,0,0,0,0,.51,1.85,1.85,0,0,0,.64.41c2.09.91,4.11,1.65,5.94,2.38-.12-1.32-.47-5.48-.61-6.26a2.23,2.23,0,0,0-.37-.92.55.55,0,0,0-.62-.09,3.11,3.11,0,0,0-.67.44c-.12.09-.27.14-.38,0s0-.29.28-.51c.76-.61,1.64-1.2,2-1.49s1.15-1,1.88-1.58c.22-.17.4-.22.49-.11s0,.27-.17.43a3.53,3.53,0,0,0-.62.68c-.35.47-.31,1.34-.22,2.67Z"/><path class="cls-2" d="M259.66,251.85c.08-.09,0-.16,0-.19l-6.06-2.59c-.09,0-.2-.12-.25-.07s0,.18.06.27l2.92,5.9c.05.08.13.12.19.05Zm-2.58,4.59c-.09.09-.09.16,0,.3l1.68,3.44a5.32,5.32,0,0,0,.86,1.32c.33.31.72.37,1.26-.2l.25-.27c.21-.22.3-.24.41-.14s.08.28-.11.48c-.55.59-1.34,1.32-1.87,1.89-.19.2-1.08,1.26-2,2.2-.23.24-.36.32-.51.18s-.08-.21.06-.36.37-.44.49-.6c.68-.94.39-1.87-.19-3.09l-7.17-15.36c-.32-.71-.42-1-.25-1.2s.42-.11,1,.1c1.42.5,11.62,4.57,15.49,6,2.3.84,3.05.55,3.51.26a6.3,6.3,0,0,0,.79-.7c.14-.15.24-.22.37-.1s0,.33-.61,1-1.87,2-3.28,3.42c-.32.31-.53.53-.65.41s-.08-.21.07-.41a.41.41,0,0,0-.26-.56l-5.25-2.17a.24.24,0,0,0-.3.06Z"/><path class="cls-2" d="M272.83,247.91c-.37.22-.52.21-1-.11-1.12-.8-2.28-1.76-2.6-2s-.47-.46-.35-.62.32-.07.49,0a4.91,4.91,0,0,0,1.17.55,3.43,3.43,0,0,0,4.14-1.44,3,3,0,0,0-.37-4.39c-1-.72-2.18-1.09-4.69-.33l-1.41.41c-3.35,1-5.33.75-7-.43-2.24-1.6-2.51-4.62-.49-7.46a12.24,12.24,0,0,1,2.29-2.47c.16-.15.3-.21.44-.11s.8.69,2.39,1.83c.45.32.57.5.45.66s-.26.12-.51-.06a3,3,0,0,0-1.72-.43,3.2,3.2,0,0,0-2.59,1.51c-1.08,1.51-.86,3.06.37,3.93.94.67,2,.71,4.48-.07l.84-.26c3.64-1.09,5.65-1,7.58.36a5,5,0,0,1,2.18,4.45,7.16,7.16,0,0,1-1.47,3.84,8.65,8.65,0,0,1-2.66,2.61"/><path class="cls-2" d="M51.7,212a1.78,1.78,0,0,0-1,1,1.61,1.61,0,0,0-.16.72,1.81,1.81,0,0,0,.12.64,1.79,1.79,0,0,0,2.3,1,1.79,1.79,0,0,0,1-2.3,1.79,1.79,0,0,0-2.3-1"/><polygon class="cls-2" points="52.55 215.17 55.5 225.07 57.16 226.13 57.81 224.19 53.3 214.88 52.55 215.17"/><path class="cls-2" d="M59.21,220.89v0s-.12.73-.16,1l-2.93,1.52,0,.28c.43,2.86.73,2.86,1,2.87s.51-.49.54-.65c.18-1,2.11-2.81,2.84-3.42l.95-.61.14-.09,0-.18a8.9,8.9,0,0,0,.17-1.61c0-.79-.17-1.44-.66-1.58-.89-.28-1.62,1.4-2,2.43"/><path class="cls-2" d="M49.07,223.1h0c-.44.74.72,1.88,1.77,2.71l.14.11,1.33-.21c.9,0,3.54,0,4.35.65.14.1.51.4.82.13s.1-.76-.26-1.4l-1-1.69-.28.09-2.92.75-.8-.63,0,0c-1-.52-2.62-1.28-3.1-.49"/><path class="cls-2" d="M56.38,213.72h0a1.09,1.09,0,1,0,1.41.63,1.09,1.09,0,0,0-1.41-.63"/><path class="cls-2" d="M49.72,216.25a1.08,1.08,0,0,0-.7,1,1,1,0,0,0,.07.39,1.1,1.1,0,0,0,1.41.63,1,1,0,0,0,.6-.58,1.09,1.09,0,0,0,0-.83,1.12,1.12,0,0,0-.58-.61,1.08,1.08,0,0,0-.83,0"/><polygon class="cls-2" points="56.06 214.42 49.82 216.81 50.19 217.77 56.81 215.23 56.44 214.27 56.06 214.42"/><polygon class="cls-2" points="52.84 214.34 52.13 214.61 53.74 218.79 54.82 218.37 53.22 214.2 52.84 214.34"/><path class="cls-2" d="M280.12,212a1.79,1.79,0,0,0-.94,1,1.77,1.77,0,0,0-.12.64,1.68,1.68,0,0,0,.16.72,1.78,1.78,0,0,0,3.29-.09,1.78,1.78,0,0,0,0-1.36,1.82,1.82,0,0,0-1-.94,1.85,1.85,0,0,0-1.37,0"/><polygon class="cls-2" points="275.44 224.05 275.37 224.19 276.02 226.13 277.68 225.07 280.63 215.16 279.89 214.88 275.44 224.05"/><path class="cls-2" d="M272,218.46c-.49.14-.65.79-.65,1.58a9.87,9.87,0,0,0,.16,1.61l0,.18,1.12.73c.7.58,2.64,2.37,2.81,3.39,0,.16.12.65.54.65s.6,0,1-2.87l0-.28-2.92-1.52c0-.28-.17-1-.17-1v0c-.36-1-1.09-2.7-2-2.43"/><path class="cls-2" d="M281,223.59l0,0-.8.63-3.2-.83-1,1.68c-.36.64-.59,1.12-.26,1.4s.68,0,.82-.13c.81-.64,3.45-.69,4.4-.65l1.11.19.17,0,.14-.11c1.06-.83,2.21-2,1.77-2.71s-2.15,0-3.09.49"/><path class="cls-2" d="M276,213.74a1.13,1.13,0,0,0-.57.61,1.09,1.09,0,1,0,1.41-.63,1.16,1.16,0,0,0-.84,0"/><path class="cls-2" d="M282.63,216.27a1.15,1.15,0,0,0-.58.61,1.34,1.34,0,0,0-.07.39,1.1,1.1,0,0,0,1.54,1,1.1,1.1,0,0,0,.55-1.44,1.09,1.09,0,0,0-.61-.58,1.13,1.13,0,0,0-.83,0"/><polygon class="cls-2" points="276.6 214.65 276.38 215.23 282.99 217.77 283.36 216.82 276.75 214.28 276.6 214.65"/><polygon class="cls-2" points="279.82 214.57 278.36 218.37 279.45 218.79 281.05 214.62 279.97 214.2 279.82 214.57"/><path class="cls-11" d="M70.18,167.64A96.83,96.83,0,1,1,167,264.47,96.82,96.82,0,0,1,70.18,167.64Z"/><rect class="cls-1" x="13.99" y="14.37" width="306.01" height="306.34"/></svg>