<?xml version="1.0" encoding="UTF-8"?>
<!-- Created with Inkscape (http://www.inkscape.org/) -->
<svg width="285.75mm" height="142.88mm" version="1.1" viewBox="0 0 285.75 142.88" xmlns="http://www.w3.org/2000/svg" xmlns:cc="http://creativecommons.org/ns#" xmlns:dc="http://purl.org/dc/elements/1.1/" xmlns:rdf="http://www.w3.org/1999/02/22-rdf-syntax-ns#">
 <metadata>
  <rdf:RDF>
   <cc:Work rdf:about="">
    <dc:format>image/svg+xml</dc:format>
    <dc:type rdf:resource="http://purl.org/dc/dcmitype/StillImage"/>
    <dc:title/>
   </cc:Work>
  </rdf:RDF>
 </metadata>
 <g transform="translate(492.88 59.432)">
  <g fill-rule="evenodd">
   <rect x="-492.88" y="-59.432" width="285.75" height="142.88" fill="#003264"/>
   <path transform="scale(.26458)" d="m-1409.1 1.6286-88.292 107.78v-107.76h-25.998v219.49h25.998v-70.711l36.272-44.279 65.34 114.91 29.957 0.0801-77.644-136.54 67.951-82.953zm-251.79-0.17934v219.7h26v-98.555h55.23v-26h-55.23v-69.145h94.326v-25.998zm-60.952 2.642v150.08c-5e-4 0.0664-5e-4 0.13287 0 0.1993 0.1806 12.016-6.5123 24.765-16.506 31.439-6.6345 4.4307-15.094 6.8037-23.578 6.8135-8.5411 0.01-17.388-2.2916-25.49-6.341-8.56-4.2788-16.253-10.45-22.286-17.879l-20.182 16.388c8.3903 10.332 18.937 18.801 30.842 24.751 11.305 5.6508 23.991 9.0948 37.146 9.0797 13.212-0.0151 26.58-3.5727 37.987-11.191 17.717-11.832 28.386-32.15 28.066-53.452v-149.89z" color="#000000" color-rendering="auto" dominant-baseline="auto" fill="#ffb515" image-rendering="auto" shape-rendering="auto" solid-color="#000000" style="font-feature-settings:normal;font-variant-alternates:normal;font-variant-caps:normal;font-variant-ligatures:normal;font-variant-numeric:normal;font-variant-position:normal;isolation:auto;mix-blend-mode:normal;shape-padding:0;text-decoration-color:#000000;text-decoration-line:none;text-decoration-style:solid;text-indent:0;text-orientation:mixed;text-transform:none;white-space:normal"/>
   <path transform="scale(.26458)" d="m-1293.5-161.5c-6.9807 0.0125-14.309 6.0511-5.6035 15.627 8.6931 9.5625 30.196 30.432 38.31 38.268-12.119 8.5638-24.323 16.371-36.557 23.438-1.8864-1.6675-4.2579-3.8193-7.3848-6.7578-10.48-9.849-13.006-2.5254-12.754 2.5254 0.1843 3.6847 0.056 10.797-0.039 15.211-54.609 27.932-120.62 41.442-170.24 42.963l-237.57 7.2832c-6.7776-0.11254-6.7776 10.113 0 10l237.57 0.7168c83.627 0.25232 170.19-22.154 244.12-75.293 6.0715 12.589 16.196 33.355 21.525 42.84 7.8025 13.886 18.184 3.0372 17.106-5.0371-0.9638-7.2147-5.8213-35.689-11.328-58.873 10.599-8.7449 21.192-18.138 31.801-28.219 8.7108-8.0461 2.9851-22.598-8.873-22.551-3.379 0.0144-6.6193 1.3426-9.0352 3.7051-10.025 9.5265-20.18 18.457-30.428 26.82-20.734-13.141-49.095-28.289-56.049-31.682-1.3728-0.66965-2.9653-0.98726-4.5762-0.98438z" color="#000000" color-rendering="auto" dominant-baseline="auto" fill="#ffb515" image-rendering="auto" shape-rendering="auto" solid-color="#000000" style="font-feature-settings:normal;font-variant-alternates:normal;font-variant-caps:normal;font-variant-ligatures:normal;font-variant-numeric:normal;font-variant-position:normal;isolation:auto;mix-blend-mode:normal;shape-padding:0;text-decoration-color:#000000;text-decoration-line:none;text-decoration-style:solid;text-indent:0;text-orientation:mixed;text-transform:none;white-space:normal"/>
  </g>
  <path d="m-285.72 46.962q0 0.17712-0.0186 0.30763-0.0187 0.13051-0.0653 0.21441-0.0373 0.07458-0.10254 0.11186-0.0559 0.03729-0.13051 0.03729h-3.3932v10.459q0 0.07458-0.0373 0.13051-0.0373 0.05593-0.13051 0.09322-0.0932 0.02797-0.25169 0.04661-0.14916 0.02797-0.38221 0.02797-0.22373 0-0.3822-0.02797-0.15848-0.01864-0.2517-0.04661-0.0932-0.03729-0.13051-0.09322-0.0373-0.05593-0.0373-0.13051v-10.459h-3.3932q-0.0746 0-0.13983-0.03729-0.0559-0.03729-0.0932-0.11186-0.0373-0.0839-0.0653-0.21441-0.0186-0.13051-0.0186-0.30763t0.0186-0.30763q0.028-0.13983 0.0653-0.22373 0.0373-0.0839 0.0932-0.12119 0.0653-0.03729 0.13983-0.03729h8.3898q0.0746 0 0.13051 0.03729 0.0652 0.03729 0.10254 0.12119 0.0466 0.0839 0.0653 0.22373 0.0186 0.13051 0.0186 0.30763zm-9.6949 11.131q0 0.07458-0.028 0.13051-0.028 0.05593-0.12119 0.09322-0.0932 0.03729-0.26101 0.05593-0.1678 0.01864-0.44746 0.01864-0.24237 0-0.40085-0.01864-0.14915-0.01864-0.24237-0.05593-0.0932-0.04661-0.14915-0.12119-0.0466-0.07458-0.0839-0.18644l-1.1093-2.8432q-0.19576-0.48475-0.41017-0.88559-0.20508-0.41017-0.49406-0.69915-0.28899-0.29831-0.68051-0.45678-0.39153-0.1678-0.94153-0.1678h-1.072v5.1364q0 0.07458-0.0466 0.13051-0.0373 0.05593-0.13051 0.09322-0.0839 0.02797-0.24238 0.04661-0.14915 0.02797-0.3822 0.02797t-0.39152-0.02797q-0.14916-0.01864-0.24238-0.04661-0.0932-0.03729-0.13051-0.09322-0.0373-0.05593-0.0373-0.13051v-11.168q0-0.36356 0.18644-0.50339 0.19576-0.14915 0.41017-0.14915h2.5636q0.45678 0 0.75508 0.02797 0.30763 0.01864 0.55 0.04661 0.69916 0.12119 1.2305 0.3822 0.54068 0.26102 0.90424 0.66186t0.54068 0.92288q0.18644 0.51271 0.18644 1.1373 0 0.60593-0.1678 1.0907-0.15847 0.47542-0.4661 0.84831-0.30763 0.36356-0.73644 0.6339-0.42881 0.27034-0.96017 0.45678 0.29831 0.13051 0.54068 0.33559 0.24237 0.19576 0.44746 0.47542 0.2144 0.27966 0.40084 0.64322t0.37289 0.82034l1.0814 2.6568q0.13051 0.33559 0.1678 0.47542 0.0373 0.13051 0.0373 0.20508zm-2.4144-8.4737q0-0.70848-0.31695-1.1932-0.31695-0.49407-1.0627-0.70848-0.23305-0.06525-0.53136-0.09322-0.28898-0.02797-0.76441-0.02797h-1.3517v4.0644h1.5661q0.6339 0 1.0907-0.14915 0.4661-0.15847 0.77373-0.42881 0.30763-0.27966 0.44746-0.65254 0.14915-0.37288 0.14915-0.81102zm-8.1661 2.5449q0 1.4636-0.34492 2.6381-0.34491 1.1746-1.0347 2.0042-0.68051 0.82034-1.7153 1.2678-1.0348 0.43814-2.4144 0.43814-1.361 0-2.3585-0.40085-0.98814-0.41017-1.6407-1.1839-0.64322-0.77373-0.96017-1.9203t-0.31695-2.6381q0-1.4263 0.34491-2.5915 0.34492-1.1653 1.0348-1.9763 0.68983-0.82034 1.7246-1.2585 1.0347-0.44746 2.4144-0.44746 1.333 0 2.3212 0.40085 0.98814 0.40085 1.6407 1.1746 0.66187 0.76441 0.97882 1.9017 0.32627 1.128 0.32627 2.5915zm-1.6873 0.11186q0-1.0254-0.18644-1.9017-0.17712-0.88559-0.60593-1.5288-0.4195-0.65254-1.128-1.0161-0.70848-0.36356-1.7526-0.36356-1.0441 0-1.7525 0.39153-0.70847 0.39153-1.1559 1.0441-0.43814 0.65254-0.6339 1.5288-0.18644 0.86695-0.18644 1.8271 0 1.0627 0.17712 1.9576t0.59661 1.5475q0.41949 0.64322 1.1186 1.0068 0.70848 0.35424 1.7712 0.35424 1.0534 0 1.7712-0.39152 0.7178-0.39153 1.1559-1.0534 0.43814-0.67119 0.62458-1.5475t0.18644-1.8551zm-10.888-2.4703q0 0.90424-0.29831 1.6314-0.2983 0.72712-0.85763 1.2398-0.55 0.51271-1.361 0.79237-0.80169 0.27966-1.9203 0.27966h-1.3703v4.3441q0 0.07458-0.0466 0.13051-0.0373 0.05593-0.1305 0.09322-0.0839 0.02797-0.24238 0.04661-0.14915 0.02797-0.3822 0.02797t-0.39153-0.02797q-0.14915-0.01864-0.24237-0.04661-0.0932-0.03729-0.13051-0.09322-0.0373-0.05593-0.0373-0.13051v-11.131q0-0.37288 0.19577-0.53136 0.19576-0.15848 0.43813-0.15848h2.5822q0.39152 0 0.74576 0.03729 0.36356 0.02797 0.84831 0.13983 0.49406 0.10254 0.99745 0.40085 0.51272 0.28898 0.86695 0.7178 0.35424 0.42881 0.54068 0.99746 0.19577 0.55932 0.19577 1.2398zm-1.6873 0.13051q0-0.73644-0.27966-1.2305-0.27034-0.49407-0.68051-0.73644-0.40085-0.24237-0.83899-0.30763-0.42881-0.06525-0.83898-0.06525h-1.4822v4.8381h1.4449q0.72712 0 1.2025-0.18644 0.48475-0.18644 0.81102-0.51271 0.32627-0.33559 0.49407-0.79237 0.1678-0.4661 0.1678-1.0068zm-8.0449 8.1568q0 0.07458-0.028 0.13051-0.028 0.05593-0.12119 0.09322-0.0932 0.03729-0.26102 0.05593-0.16779 0.01864-0.44745 0.01864-0.24238 0-0.40085-0.01864-0.14915-0.01864-0.24237-0.05593-0.0932-0.04661-0.14916-0.12119-0.0466-0.07458-0.0839-0.18644l-1.1093-2.8432q-0.19576-0.48475-0.41017-0.88559-0.20508-0.41017-0.49407-0.69915-0.28898-0.29831-0.6805-0.45678-0.39153-0.1678-0.94153-0.1678h-1.072v5.1364q0 0.07458-0.0466 0.13051-0.0373 0.05593-0.1305 0.09322-0.0839 0.02797-0.24238 0.04661-0.14915 0.02797-0.3822 0.02797t-0.39153-0.02797q-0.14915-0.01864-0.24237-0.04661-0.0932-0.03729-0.13051-0.09322-0.0373-0.05593-0.0373-0.13051v-11.168q0-0.36356 0.18644-0.50339 0.19577-0.14915 0.41017-0.14915h2.5636q0.45678 0 0.75508 0.02797 0.30763 0.01864 0.55 0.04661 0.69915 0.12119 1.2305 0.3822 0.54068 0.26102 0.90424 0.66186t0.54068 0.92288q0.18644 0.51271 0.18644 1.1373 0 0.60593-0.1678 1.0907-0.15847 0.47542-0.4661 0.84831-0.30763 0.36356-0.73644 0.6339-0.42882 0.27034-0.96017 0.45678 0.2983 0.13051 0.54068 0.33559 0.24237 0.19576 0.44745 0.47542 0.21441 0.27966 0.40085 0.64322t0.37288 0.82034l1.0814 2.6568q0.13051 0.33559 0.1678 0.47542 0.0373 0.13051 0.0373 0.20508zm-2.4144-8.4737q0-0.70848-0.31695-1.1932-0.31695-0.49407-1.0627-0.70848-0.23305-0.06525-0.53135-0.09322-0.28899-0.02797-0.76441-0.02797h-1.3517v4.0644h1.5661q0.6339 0 1.0907-0.14915 0.4661-0.15847 0.77373-0.42881 0.30762-0.27966 0.44745-0.65254 0.14916-0.37288 0.14916-0.81102zm-8.8373 8.4737q0 0.07458-0.0373 0.13051-0.0373 0.05593-0.13051 0.09322-0.0932 0.02797-0.25169 0.04661-0.14915 0.02797-0.38221 0.02797-0.22372 0-0.3822-0.02797-0.15847-0.01864-0.25169-0.04661-0.0932-0.03729-0.13051-0.09322-0.0373-0.05593-0.0373-0.13051v-11.578q0-0.07458 0.0373-0.13051 0.0466-0.05593 0.13983-0.0839 0.10254-0.03729 0.25169-0.05593 0.15848-0.02797 0.37288-0.02797 0.23306 0 0.38221 0.02797 0.15847 0.01864 0.25169 0.05593 0.0932 0.02797 0.13051 0.0839 0.0373 0.05593 0.0373 0.13051zm-3.6076-0.32627q0.0746 0.20508 0.0746 0.33559 9e-3 0.12119-0.0653 0.18644-0.0746 0.06525-0.25169 0.0839-0.1678 0.01864-0.45678 0.01864-0.28899 0-0.46611-0.01864-0.16779-0.0093-0.26101-0.03729-0.0839-0.03729-0.13051-0.09322-0.0373-0.05593-0.0746-0.13983l-1.0347-2.9364h-5.0153l-0.98814 2.8992q-0.028 0.0839-0.0746 0.14915-0.0466 0.05593-0.13983 0.10254-0.0839 0.03729-0.25169 0.05593-0.15848 0.01864-0.41949 0.01864-0.27034 0-0.44746-0.02797-0.1678-0.01864-0.24237-0.0839-0.0653-0.06526-0.0653-0.18644 9e-3 -0.13051 0.0839-0.33559l4.0458-11.205q0.0373-0.10254 0.0932-0.1678 0.0652-0.06525 0.17712-0.10254 0.12118-0.03729 0.2983-0.04661 0.18644-0.01864 0.4661-0.01864 0.29831 0 0.49407 0.01864 0.19576 0.0093 0.31695 0.04661 0.12119 0.03729 0.18644 0.11186 0.0653 0.06526 0.10254 0.1678zm-5.1924-9.8907h-9e-3l-2.0788 6.0127h4.1949zm120.62-8.9473q0 0.18644-0.0186 0.31695-0.0187 0.12119-0.0653 0.21441-0.0373 0.0839-0.10254 0.13051-0.0559 0.03729-0.13983 0.03729h-5.3322q-0.2144 0-0.41017-0.13983-0.18644-0.14915-0.18644-0.51271v-11.168q0-0.07458 0.0373-0.13051 0.0373-0.05593 0.13051-0.0839 0.0932-0.03729 0.25169-0.05593 0.15848-0.02797 0.38221-0.02797 0.23305 0 0.3822 0.02797 0.15848 0.01864 0.2517 0.05593 0.0932 0.02797 0.13051 0.0839 0.0373 0.05593 0.0373 0.13051v10.431h4.3254q0.0839 0 0.13983 0.04661 0.0653 0.03729 0.10254 0.12119 0.0466 0.07458 0.0653 0.20508 0.0186 0.13051 0.0186 0.31695zm-8.2593 0.13051q0.0746 0.20508 0.0746 0.33559 9e-3 0.12119-0.0653 0.18644-0.0746 0.06525-0.25169 0.0839-0.1678 0.01864-0.45678 0.01864-0.28899 0-0.4661-0.01864-0.1678-0.0093-0.26102-0.03729-0.0839-0.03729-0.13051-0.09322-0.0373-0.05593-0.0746-0.13983l-1.0347-2.9364h-5.0153l-0.98814 2.8992q-0.028 0.0839-0.0746 0.14915-0.0466 0.05593-0.13983 0.10254-0.0839 0.03729-0.2517 0.05593-0.15847 0.01864-0.41949 0.01864-0.27034 0-0.44746-0.02797-0.1678-0.01864-0.24237-0.0839-0.0653-0.06525-0.0653-0.18644 9e-3 -0.13051 0.0839-0.33559l4.0458-11.205q0.0373-0.10254 0.0932-0.1678 0.0652-0.06525 0.17712-0.10254 0.12118-0.03729 0.2983-0.04661 0.18644-0.01864 0.4661-0.01864 0.29831 0 0.49407 0.01864 0.19577 0.0093 0.31695 0.04661 0.12119 0.03729 0.18644 0.11186 0.0653 0.06525 0.10255 0.1678zm-5.1924-9.8907h-9e-3l-2.0788 6.0127h4.1949zm-7.0661 9.7975q0 0.18644-0.0653 0.31695-0.0559 0.13051-0.15847 0.21441-0.0932 0.0839-0.21441 0.12119-0.12119 0.03729-0.24237 0.03729h-0.51272q-0.24237 0-0.42881-0.04661-0.17712-0.05593-0.34492-0.18644-0.15847-0.13983-0.32627-0.37288-0.15847-0.23305-0.35423-0.59661l-3.8034-6.861q-0.2983-0.53136-0.60593-1.1093-0.29831-0.58729-0.55932-1.1373h-0.0186q0.0186 0.67119 0.028 1.3703 9e-3 0.69915 9e-3 1.389v7.2805q0 0.06525-0.0373 0.13051-0.0373 0.05593-0.13051 0.09322-0.0839 0.02797-0.23305 0.04661-0.13983 0.02797-0.36356 0.02797t-0.37288-0.02797q-0.13983-0.01864-0.22373-0.04661-0.0839-0.03729-0.12118-0.09322-0.0373-0.06526-0.0373-0.13051v-11.131q0-0.37288 0.20508-0.53136 0.20509-0.15848 0.44746-0.15848h0.76441q0.27034 0 0.44746 0.04661 0.18644 0.04661 0.32627 0.15847 0.14915 0.10254 0.27966 0.29831 0.13983 0.18644 0.2983 0.47542l2.9271 5.2949q0.27034 0.48475 0.52203 0.95085 0.2517 0.45678 0.48475 0.90424t0.45678 0.88559q0.23305 0.42881 0.45678 0.86695h9e-3q-0.0187-0.73644-0.028-1.5288 0-0.8017 0-1.5381v-6.5441q0-0.06526 0.0373-0.12119 0.0373-0.05593 0.12119-0.09322 0.0932-0.04661 0.23305-0.06525 0.14915-0.01864 0.3822-0.01864 0.20509 0 0.35424 0.01864t0.23305 0.06525q0.0839 0.03729 0.12119 0.09322 0.0373 0.05593 0.0373 0.12119zm-11.653-5.5093q0 1.4636-0.34492 2.6381-0.34492 1.1746-1.0348 2.0042-0.68051 0.82034-1.7152 1.2678-1.0348 0.43814-2.4144 0.43814-1.361 0-2.3585-0.40085-0.98813-0.41017-1.6407-1.1839-0.64322-0.77373-0.96017-1.9203-0.31695-1.1466-0.31695-2.6381 0-1.4263 0.34492-2.5915 0.34491-1.1653 1.0348-1.9763 0.68983-0.82034 1.7246-1.2585 1.0348-0.44746 2.4144-0.44746 1.333 0 2.3212 0.40085 0.98814 0.40085 1.6407 1.1746 0.66186 0.76441 0.97881 1.9017 0.32628 1.128 0.32628 2.5915zm-1.6873 0.11186q0-1.0254-0.18644-1.9017-0.17712-0.88559-0.60594-1.5288-0.41949-0.65254-1.128-1.0161-0.70848-0.36356-1.7526-0.36356t-1.7525 0.39152q-0.70848 0.39153-1.1559 1.0441-0.43813 0.65254-0.63389 1.5288-0.18645 0.86695-0.18645 1.8271 0 1.0627 0.17712 1.9576t0.59661 1.5475q0.4195 0.64322 1.1186 1.0068 0.70847 0.35424 1.7712 0.35424 1.0534 0 1.7712-0.39153 0.71779-0.39153 1.1559-1.0534 0.43813-0.67119 0.62458-1.5475 0.18644-0.87627 0.18644-1.8551zm-11.625 5.817q0 0.07458-0.0373 0.13051-0.0373 0.05593-0.13051 0.09322-0.0932 0.02797-0.25169 0.04661-0.14915 0.02797-0.38221 0.02797-0.22372 0-0.3822-0.02797-0.15847-0.01864-0.25169-0.04661-0.0932-0.03729-0.13051-0.09322-0.0373-0.05593-0.0373-0.13051v-11.578q0-0.07458 0.0373-0.13051 0.0466-0.05593 0.13983-0.0839 0.10254-0.03729 0.25169-0.05593 0.15848-0.02797 0.37288-0.02797 0.23306 0 0.38221 0.02797 0.15847 0.01864 0.25169 0.05593 0.0932 0.02797 0.13051 0.0839 0.0373 0.05593 0.0373 0.13051zm-3.3653-11.131q0 0.17712-0.0186 0.30763-0.0186 0.13051-0.0653 0.21441-0.0373 0.07458-0.10254 0.11186-0.0559 0.03729-0.13051 0.03729h-3.3932v10.459q0 0.07458-0.0373 0.13051-0.0373 0.05593-0.13051 0.09322-0.0932 0.02797-0.25169 0.04661-0.14916 0.02797-0.38221 0.02797-0.22373 0-0.3822-0.02797-0.15848-0.01864-0.2517-0.04661-0.0932-0.03729-0.1305-0.09322t-0.0373-0.13051v-10.459h-3.3932q-0.0746 0-0.13983-0.03729-0.0559-0.03729-0.0932-0.11186-0.0373-0.0839-0.0652-0.21441-0.0186-0.13051-0.0186-0.30763 0-0.17712 0.0186-0.30763 0.028-0.13983 0.0652-0.22373 0.0373-0.0839 0.0932-0.12119 0.0653-0.03729 0.13983-0.03729h8.3898q0.0746 0 0.13051 0.03729 0.0653 0.03729 0.10254 0.12119 0.0466 0.0839 0.0653 0.22373 0.0186 0.13051 0.0186 0.30763zm-8.0729 10.804q0.0746 0.20508 0.0746 0.33559 9e-3 0.12119-0.0652 0.18644-0.0746 0.06525-0.2517 0.0839-0.1678 0.01864-0.45678 0.01864t-0.4661-0.01864q-0.1678-0.0093-0.26102-0.03729-0.0839-0.03729-0.13051-0.09322-0.0373-0.05593-0.0746-0.13983l-1.0348-2.9364h-5.0153l-0.98813 2.8992q-0.028 0.0839-0.0746 0.14915-0.0466 0.05593-0.13983 0.10254-0.0839 0.03729-0.2517 0.05593-0.15847 0.01864-0.41949 0.01864-0.27034 0-0.44746-0.02797-0.16779-0.01864-0.24237-0.0839-0.0652-0.06525-0.0652-0.18644 9e-3 -0.13051 0.0839-0.33559l4.0458-11.205q0.0373-0.10254 0.0932-0.1678 0.0653-0.06525 0.17712-0.10254 0.12119-0.03729 0.29831-0.04661 0.18644-0.01864 0.4661-0.01864 0.2983 0 0.49407 0.01864 0.19576 0.0093 0.31695 0.04661 0.12118 0.03729 0.18644 0.11186 0.0652 0.06525 0.10254 0.1678zm-5.1924-9.8907h-9e-3l-2.0788 6.0127h4.1949zm-7.0661 9.7975q0 0.18644-0.0653 0.31695-0.0559 0.13051-0.15847 0.21441-0.0932 0.0839-0.21441 0.12119-0.12118 0.03729-0.24237 0.03729h-0.51271q-0.24238 0-0.42882-0.04661-0.17712-0.05593-0.34491-0.18644-0.15848-0.13983-0.32627-0.37288-0.15848-0.23305-0.35424-0.59661l-3.8034-6.861q-0.29831-0.53136-0.60594-1.1093-0.2983-0.58729-0.55932-1.1373h-0.0186q0.0186 0.67119 0.028 1.3703 9e-3 0.69915 9e-3 1.389v7.2805q0 0.06525-0.0373 0.13051-0.0373 0.05593-0.13051 0.09322-0.0839 0.02797-0.23305 0.04661-0.13983 0.02797-0.36356 0.02797t-0.37288-0.02797q-0.13984-0.01864-0.22373-0.04661-0.0839-0.03729-0.12119-0.09322-0.0373-0.06526-0.0373-0.13051v-11.131q0-0.37288 0.20509-0.53136 0.20508-0.15848 0.44745-0.15848h0.76441q0.27034 0 0.44746 0.04661 0.18644 0.04661 0.32627 0.15847 0.14915 0.10254 0.27966 0.29831 0.13983 0.18644 0.29831 0.47542l2.9271 5.2949q0.27034 0.48475 0.52203 0.95085 0.2517 0.45678 0.48475 0.90424t0.45678 0.88559q0.23305 0.42881 0.45678 0.86695h9e-3q-0.0186-0.73644-0.028-1.5288 0-0.8017 0-1.5381v-6.5441q0-0.06526 0.0373-0.12119 0.0373-0.05593 0.12119-0.09322 0.0932-0.04661 0.23305-0.06525 0.14915-0.01864 0.38221-0.01864 0.20508 0 0.35423 0.01864 0.14916 0.01864 0.23305 0.06525 0.0839 0.03729 0.12119 0.09322 0.0373 0.05593 0.0373 0.12119zm-11.438 0.41949q0 0.07458-0.028 0.13051-0.028 0.05593-0.12119 0.09322-0.0932 0.03729-0.26102 0.05593-0.16779 0.01864-0.44746 0.01864-0.24237 0-0.40084-0.01864-0.14916-0.01864-0.24238-0.05593-0.0932-0.04661-0.14915-0.12119-0.0466-0.07458-0.0839-0.18644l-1.1093-2.8432q-0.19576-0.48475-0.41017-0.88559-0.20509-0.41017-0.49407-0.69915-0.28898-0.2983-0.68051-0.45678-0.39152-0.1678-0.94152-0.1678h-1.072v5.1364q0 0.07458-0.0466 0.13051-0.0373 0.05593-0.13051 0.09322-0.0839 0.02797-0.24237 0.04661-0.14915 0.02797-0.3822 0.02797-0.23306 0-0.39153-0.02797-0.14915-0.01864-0.24237-0.04661-0.0932-0.03729-0.13051-0.09322-0.0373-0.05593-0.0373-0.13051v-11.168q0-0.36356 0.18644-0.50339 0.19576-0.14915 0.41017-0.14915h2.5636q0.45678 0 0.75509 0.02797 0.30763 0.01864 0.55 0.04661 0.69915 0.12119 1.2305 0.3822 0.54068 0.26102 0.90424 0.66186 0.36356 0.40085 0.54067 0.92288 0.18644 0.51271 0.18644 1.1373 0 0.60593-0.16779 1.0907-0.15848 0.47542-0.4661 0.84831-0.30763 0.36356-0.73645 0.6339-0.42881 0.27034-0.96017 0.45678 0.29831 0.13051 0.54068 0.33559 0.24238 0.19576 0.44746 0.47542 0.21441 0.27966 0.40085 0.64322 0.18644 0.36356 0.37288 0.82034l1.0814 2.6568q0.13051 0.33559 0.16779 0.47542 0.0373 0.13051 0.0373 0.20508zm-2.4144-8.4737q0-0.70848-0.31695-1.1932-0.31695-0.49407-1.0627-0.70848-0.23305-0.06525-0.53136-0.09322-0.28898-0.02797-0.7644-0.02797h-1.3517v4.0644h1.5661q0.6339 0 1.0907-0.14915 0.46611-0.15848 0.77373-0.42881 0.30763-0.27966 0.44746-0.65254 0.14915-0.37288 0.14915-0.81102zm-8.2407 8.0542q0 0.1678-0.0186 0.29831-0.0186 0.12119-0.0653 0.20508-0.0466 0.0839-0.11186 0.12119-0.0559 0.03729-0.13051 0.03729h-5.789q-0.21441 0-0.41017-0.13983-0.18644-0.14915-0.18644-0.51271v-10.758q0-0.36356 0.18644-0.50339 0.19576-0.14915 0.41017-0.14915h5.7237q0.0746 0 0.13051 0.03729 0.0653 0.03729 0.10254 0.12119 0.0373 0.0839 0.0559 0.21441 0.028 0.12119 0.028 0.30763 0 0.1678-0.028 0.29831-0.0186 0.12119-0.0559 0.20508-0.0373 0.07458-0.10254 0.11186-0.0559 0.03729-0.13051 0.03729h-4.717v3.7847h4.0458q0.0746 0 0.13051 0.04661 0.0652 0.03729 0.10254 0.11186 0.0466 0.07458 0.0652 0.20508 0.0186 0.13051 0.0186 0.30763 0 0.1678-0.0186 0.28898-0.0186 0.12119-0.0652 0.19576-0.0373 0.07458-0.10254 0.11186-0.0559 0.02797-0.13051 0.02797h-4.0458v4.3161h4.7822q0.0746 0 0.13051 0.03729 0.0652 0.03729 0.11186 0.12119 0.0466 0.07458 0.0653 0.20508 0.0186 0.12119 0.0186 0.30763zm-8.4737-10.711q0 0.17712-0.0186 0.30763-0.0186 0.13051-0.0652 0.21441-0.0373 0.07458-0.10255 0.11186-0.0559 0.03729-0.1305 0.03729h-3.3932v10.459q0 0.07458-0.0373 0.13051-0.0373 0.05593-0.1305 0.09322-0.0932 0.02797-0.2517 0.04661-0.14915 0.02797-0.3822 0.02797-0.22373 0-0.38221-0.02797-0.15847-0.01864-0.25169-0.04661-0.0932-0.03729-0.13051-0.09322-0.0373-0.05593-0.0373-0.13051v-10.459h-3.3932q-0.0746 0-0.13983-0.03729-0.0559-0.03729-0.0932-0.11186-0.0373-0.0839-0.0653-0.21441-0.0186-0.13051-0.0186-0.30763 0-0.17712 0.0186-0.30763 0.028-0.13983 0.0653-0.22373 0.0373-0.0839 0.0932-0.12119 0.0652-0.03729 0.13983-0.03729h8.3898q0.0746 0 0.1305 0.03729 0.0653 0.03729 0.10255 0.12119 0.0466 0.0839 0.0652 0.22373 0.0186 0.13051 0.0186 0.30763zm-10.786 10.711q0 0.18644-0.0652 0.31695-0.0559 0.13051-0.15848 0.21441-0.0932 0.0839-0.2144 0.12119-0.12119 0.03729-0.24238 0.03729h-0.51271q-0.24237 0-0.42881-0.04661-0.17712-0.05593-0.34492-0.18644-0.15847-0.13983-0.32627-0.37288-0.15848-0.23305-0.35424-0.59661l-3.8034-6.861q-0.29831-0.53136-0.60593-1.1093-0.29831-0.58729-0.55933-1.1373h-0.0186q0.0186 0.67119 0.028 1.3703 9e-3 0.69915 9e-3 1.389v7.2805q0 0.06525-0.0373 0.13051-0.0373 0.05593-0.13051 0.09322-0.0839 0.02797-0.23305 0.04661-0.13983 0.02797-0.36356 0.02797t-0.37288-0.02797q-0.13983-0.01864-0.22373-0.04661-0.0839-0.03729-0.12119-0.09322-0.0373-0.06526-0.0373-0.13051v-11.131q0-0.37288 0.20508-0.53136t0.44746-0.15848h0.76441q0.27033 0 0.44745 0.04661 0.18644 0.04661 0.32627 0.15847 0.14916 0.10254 0.27967 0.29831 0.13983 0.18644 0.2983 0.47542l2.9271 5.2949q0.27034 0.48475 0.52204 0.95085 0.25169 0.45678 0.48474 0.90424t0.45678 0.88559q0.23305 0.42881 0.45678 0.86695h9e-3q-0.0187-0.73644-0.028-1.5288 0-0.8017 0-1.5381v-6.5441q0-0.06526 0.0373-0.12119 0.0373-0.05593 0.12118-0.09322 0.0932-0.04661 0.23305-0.06525 0.14916-0.01864 0.38221-0.01864 0.20508 0 0.35424 0.01864 0.14915 0.01864 0.23305 0.06525 0.0839 0.03729 0.12118 0.09322 0.0373 0.05593 0.0373 0.12119zm-12.324 0.41949q0 0.07458-0.0373 0.13051-0.0373 0.05593-0.1305 0.09322-0.0932 0.02797-0.2517 0.04661-0.14915 0.02797-0.3822 0.02797-0.22373 0-0.38221-0.02797-0.15847-0.01864-0.25169-0.04661-0.0932-0.03729-0.13051-0.09322-0.0373-0.05593-0.0373-0.13051v-11.578q0-0.07458 0.0373-0.13051 0.0466-0.05593 0.13983-0.0839 0.10254-0.03729 0.2517-0.05593 0.15847-0.02797 0.37288-0.02797 0.23305 0 0.3822 0.02797 0.15848 0.01864 0.2517 0.05593 0.0932 0.02797 0.1305 0.0839t0.0373 0.13051zm130.26-23.154v4.4466q0 0.07458-0.0373 0.13051-0.0373 0.05593-0.13051 0.09322-0.0932 0.02797-0.25169 0.04661-0.15848 0.02797-0.38221 0.02797-0.23305 0-0.39152-0.02797-0.14915-0.01864-0.2517-0.04661-0.0932-0.03729-0.13051-0.09322-0.0373-0.05593-0.0373-0.13051v-4.4466l-3.4119-6.8051q-0.10254-0.21441-0.13051-0.33559-0.0186-0.12119 0.0466-0.18644 0.0746-0.065254 0.2517-0.083898 0.18644-0.018644 0.49406-0.018644 0.27967 0 0.44746 0.018644 0.17712 0.018644 0.27966 0.055932 0.10255 0.027966 0.14916 0.09322 0.0559 0.055932 0.10254 0.14915l1.6686 3.4678q0.23305 0.49407 0.46611 1.0347 0.23305 0.54068 0.47542 1.0907h0.0186q0.21441-0.53136 0.43814-1.0534 0.23305-0.53136 0.4661-1.0441l1.678-3.4864q0.028-0.093221 0.0746-0.15847 0.0559-0.065254 0.13983-0.09322 0.0932-0.037288 0.25169-0.055932 0.15848-0.018644 0.40085-0.018644 0.33559 0 0.52203 0.027966 0.19577 0.018644 0.27034 0.083898 0.0746 0.065254 0.0466 0.18644-0.0186 0.12119-0.12118 0.32627zm-5.9475-1.5195q0 1.5661-0.40084 2.7407-0.40085 1.1653-1.1746 1.939-0.76441 0.76441-1.883 1.1466-1.1186 0.3822-2.6661 0.3822h-2.5542q-0.2144 0-0.41017-0.13983-0.18644-0.14915-0.18644-0.51271v-10.758q0-0.36356 0.18644-0.50339 0.19577-0.14915 0.41017-0.14915h2.7314q1.5661 0 2.6475 0.41017 1.0814 0.40085 1.8085 1.1653 0.73644 0.75509 1.1093 1.8364 0.3822 1.0814 0.3822 2.4424zm-1.6873 0.06525q0-0.97881-0.24237-1.8178-0.24237-0.84831-0.76441-1.4636-0.51271-0.61526-1.3051-0.96017-0.79238-0.34492-2.0415-0.34492h-1.6314v9.3873h1.65q1.1559 0 1.9483-0.28898t1.3237-0.88559 0.79237-1.4915q0.27034-0.90424 0.27034-2.1347zm-10.198 5.4814q0 0.1678-0.0187 0.29831-0.0186 0.12119-0.0652 0.20508-0.0466 0.0839-0.11187 0.12119-0.0559 0.03729-0.1305 0.03729h-5.789q-0.21441 0-0.41017-0.13983-0.18644-0.14915-0.18644-0.51271v-10.758q0-0.36356 0.18644-0.50339 0.19576-0.14915 0.41017-0.14915h5.7237q0.0746 0 0.13051 0.037288 0.0653 0.037288 0.10254 0.12119 0.0373 0.083898 0.0559 0.21441 0.028 0.12119 0.028 0.30763 0 0.1678-0.028 0.29831-0.0186 0.12119-0.0559 0.20509-0.0373 0.07458-0.10254 0.11186-0.0559 0.03729-0.13051 0.03729h-4.717v3.7847h4.0458q0.0746 0 0.13051 0.04661 0.0653 0.03729 0.10255 0.11186 0.0466 0.07458 0.0652 0.20508 0.0186 0.13051 0.0186 0.30763 0 0.1678-0.0186 0.28898-0.0186 0.12119-0.0652 0.19576-0.0373 0.07458-0.10255 0.11186-0.0559 0.02797-0.13051 0.02797h-4.0458v4.3161h4.7822q0.0746 0 0.1305 0.03729 0.0653 0.03729 0.11187 0.12119 0.0466 0.07458 0.0652 0.20508 0.0187 0.12119 0.0187 0.30763zm-9.9373 0q0 0.18644-0.0652 0.31695-0.0559 0.13051-0.15848 0.21441-0.0932 0.0839-0.21441 0.12119-0.12118 0.03729-0.24237 0.03729h-0.51271q-0.24237 0-0.42882-0.04661-0.17711-0.05593-0.34491-0.18644-0.15848-0.13983-0.32627-0.37288-0.15848-0.23305-0.35424-0.59661l-3.8034-6.861q-0.29831-0.53136-0.60594-1.1093-0.2983-0.58729-0.55932-1.1373h-0.0186q0.0186 0.67119 0.028 1.3703 9e-3 0.69915 9e-3 1.389v7.2805q0 0.06525-0.0373 0.13051-0.0373 0.05593-0.13051 0.09322-0.0839 0.02797-0.23305 0.04661-0.13983 0.02797-0.36356 0.02797t-0.37288-0.02797q-0.13983-0.01864-0.22373-0.04661-0.0839-0.03729-0.12119-0.09322-0.0373-0.06525-0.0373-0.13051v-11.131q0-0.37288 0.20509-0.53136 0.20508-0.15847 0.44746-0.15847h0.7644q0.27034 0 0.44746 0.04661 0.18644 0.04661 0.32627 0.15847 0.14916 0.10254 0.27966 0.29831 0.13983 0.18644 0.29831 0.47542l2.9271 5.2949q0.27034 0.48475 0.52203 0.95085 0.2517 0.45678 0.48475 0.90424t0.45678 0.88559q0.23305 0.42881 0.45678 0.86695h9e-3q-0.0186-0.73644-0.028-1.5288 0-0.8017 0-1.5381v-6.5441q0-0.065254 0.0373-0.12119 0.0373-0.055932 0.12118-0.09322 0.0932-0.04661 0.23305-0.065254 0.14916-0.018644 0.38221-0.018644 0.20508 0 0.35423 0.018644 0.14916 0.018644 0.23306 0.065254 0.0839 0.037288 0.12118 0.09322 0.0373 0.055932 0.0373 0.12119zm-12.342 0q0 0.18644-0.0653 0.31695-0.0559 0.13051-0.15847 0.21441-0.0932 0.0839-0.21441 0.12119-0.12119 0.03729-0.24237 0.03729h-0.51272q-0.24237 0-0.42881-0.04661-0.17712-0.05593-0.34492-0.18644-0.15847-0.13983-0.32627-0.37288-0.15847-0.23305-0.35423-0.59661l-3.8034-6.861q-0.2983-0.53136-0.60593-1.1093-0.29831-0.58729-0.55932-1.1373h-0.0186q0.0186 0.67119 0.028 1.3703 9e-3 0.69915 9e-3 1.389v7.2805q0 0.06525-0.0373 0.13051-0.0373 0.05593-0.13051 0.09322-0.0839 0.02797-0.23305 0.04661-0.13983 0.02797-0.36356 0.02797-0.22372 0-0.37288-0.02797-0.13983-0.01864-0.22373-0.04661-0.0839-0.03729-0.12118-0.09322-0.0373-0.06525-0.0373-0.13051v-11.131q0-0.37288 0.20508-0.53136 0.20509-0.15847 0.44746-0.15847h0.76441q0.27034 0 0.44746 0.04661 0.18644 0.04661 0.32627 0.15847 0.14915 0.10254 0.27966 0.29831 0.13983 0.18644 0.29831 0.47542l2.9271 5.2949q0.27034 0.48475 0.52203 0.95085 0.2517 0.45678 0.48475 0.90424t0.45678 0.88559q0.23305 0.42881 0.45678 0.86695h9e-3q-0.0187-0.73644-0.028-1.5288 0-0.8017 0-1.5381v-6.5441q0-0.065254 0.0373-0.12119 0.0373-0.055932 0.12119-0.09322 0.0932-0.04661 0.23305-0.065254 0.14915-0.018644 0.3822-0.018644 0.20509 0 0.35424 0.018644t0.23305 0.065254q0.0839 0.037288 0.12119 0.09322 0.0373 0.055932 0.0373 0.12119zm-11.727 0q0 0.1678-0.0186 0.29831-0.0186 0.12119-0.0652 0.20508-0.0466 0.0839-0.11187 0.12119-0.0559 0.03729-0.13051 0.03729h-5.789q-0.21441 0-0.41017-0.13983-0.18645-0.14915-0.18645-0.51271v-10.758q0-0.36356 0.18645-0.50339 0.19576-0.14915 0.41017-0.14915h5.7237q0.0746 0 0.13051 0.037288 0.0652 0.037288 0.10254 0.12119 0.0373 0.083898 0.0559 0.21441 0.028 0.12119 0.028 0.30763 0 0.1678-0.028 0.29831-0.0186 0.12119-0.0559 0.20509-0.0373 0.07458-0.10254 0.11186-0.0559 0.03729-0.13051 0.03729h-4.717v3.7847h4.0458q0.0746 0 0.13051 0.04661 0.0652 0.03729 0.10254 0.11186 0.0466 0.07458 0.0653 0.20508 0.0186 0.13051 0.0186 0.30763 0 0.1678-0.0186 0.28898-0.0186 0.12119-0.0653 0.19576-0.0373 0.07458-0.10254 0.11186-0.0559 0.02797-0.13051 0.02797h-4.0458v4.3161h4.7822q0.0746 0 0.13051 0.03729 0.0653 0.03729 0.11187 0.12119 0.0466 0.07458 0.0652 0.20508 0.0186 0.12119 0.0186 0.30763zm-8.7627 0.40085q0 0.07458-0.0373 0.13983-0.028 0.05593-0.12118 0.09322-0.0932 0.03729-0.2517 0.05593-0.15847 0.02797-0.41017 0.02797-0.32627 0-0.53136-0.02797-0.20508-0.02797-0.30762-0.10254-0.10255-0.07458-0.1678-0.1678l-4.4373-6.0314v6.0314q0 0.06525-0.0373 0.13051-0.0373 0.05593-0.13051 0.09322-0.0932 0.02797-0.25169 0.04661-0.14916 0.02797-0.38221 0.02797-0.22373 0-0.3822-0.02797-0.15848-0.01864-0.2517-0.04661-0.0932-0.03729-0.13051-0.09322-0.0373-0.06525-0.0373-0.13051v-11.578q0-0.074576 0.0373-0.13051 0.0373-0.055932 0.13051-0.083898 0.0932-0.037288 0.2517-0.055932 0.15847-0.027966 0.3822-0.027966 0.23305 0 0.38221 0.027966 0.15847 0.018644 0.25169 0.055932 0.0932 0.027966 0.13051 0.083898 0.0373 0.055932 0.0373 0.13051v5.3602l4.2695-5.3602q0.0559-0.083898 0.13051-0.13983 0.0746-0.055932 0.17712-0.083898 0.11186-0.037288 0.26102-0.055932 0.15847-0.018644 0.40085-0.018644 0.24237 0 0.39152 0.027966 0.14915 0.018644 0.23305 0.055932 0.0932 0.037288 0.12119 0.09322 0.0373 0.055932 0.0373 0.12119 0 0.12119-0.0653 0.24237-0.0559 0.12119-0.22373 0.33559l-3.9992 4.7822 4.3068 5.7237q0.15848 0.24237 0.18644 0.33559 0.0373 0.0839 0.0373 0.13983zm-15.195-0.75508q0 0.66186-0.22373 0.88559-0.2144 0.21441-0.79237 0.21441-0.55932 0-0.77373-0.21441t-0.21441-0.85763q0-0.66186 0.21441-0.87627 0.22373-0.22373 0.8017-0.22373 0.55932 0 0.77372 0.21441 0.21441 0.21441 0.21441 0.85763zm-2.4424-10.357q0 0.17712-0.0186 0.30763t-0.0652 0.21441q-0.0466 0.07458-0.11187 0.11186-0.0559 0.03729-0.12118 0.03729h-4.4186v4.1017h4.1763q0.0653 0 0.12119 0.03729 0.0653 0.02797 0.11186 0.10254 0.0466 0.07458 0.0653 0.20508 0.0186 0.12119 0.0186 0.31695 0 0.17712-0.0186 0.30763-0.0186 0.12119-0.0653 0.20508-0.0466 0.07458-0.11186 0.12119-0.0559 0.03729-0.12119 0.03729h-4.1763v5.0246q0 0.06525-0.0373 0.13051-0.0373 0.05593-0.13051 0.09322-0.0932 0.02797-0.24237 0.04661-0.14915 0.02797-0.39153 0.02797-0.22373 0-0.3822-0.02797-0.15848-0.01864-0.2517-0.04661-0.0932-0.03729-0.13051-0.09322-0.0373-0.06525-0.0373-0.13051v-11.168q0-0.36356 0.18644-0.50339 0.19576-0.14915 0.41017-0.14915h5.4254q0.0652 0 0.12118 0.037288 0.0653 0.037288 0.11187 0.12119 0.0466 0.083898 0.0652 0.22373 0.0186 0.13051 0.0186 0.30763zm-13.89 10.711q0 0.18644-0.0652 0.31695-0.0559 0.13051-0.15848 0.21441-0.0932 0.0839-0.2144 0.12119-0.12119 0.03729-0.24238 0.03729h-0.51271q-0.24237 0-0.42881-0.04661-0.17712-0.05593-0.34492-0.18644-0.15847-0.13983-0.32627-0.37288-0.15847-0.23305-0.35424-0.59661l-3.8034-6.861q-0.29831-0.53136-0.60593-1.1093-0.29831-0.58729-0.55933-1.1373h-0.0186q0.0186 0.67119 0.028 1.3703 9e-3 0.69915 9e-3 1.389v7.2805q0 0.06525-0.0373 0.13051-0.0373 0.05593-0.13051 0.09322-0.0839 0.02797-0.23305 0.04661-0.13983 0.02797-0.36356 0.02797t-0.37288-0.02797q-0.13983-0.01864-0.22373-0.04661-0.0839-0.03729-0.12119-0.09322-0.0373-0.06525-0.0373-0.13051v-11.131q0-0.37288 0.20508-0.53136 0.20509-0.15847 0.44746-0.15847h0.76441q0.27034 0 0.44745 0.04661 0.18645 0.04661 0.32628 0.15847 0.14915 0.10254 0.27966 0.29831 0.13983 0.18644 0.2983 0.47542l2.9271 5.2949q0.27034 0.48475 0.52204 0.95085 0.25169 0.45678 0.48474 0.90424 0.23306 0.44746 0.45678 0.88559 0.23306 0.42881 0.45678 0.86695h9e-3q-0.0186-0.73644-0.028-1.5288 0-0.8017 0-1.5381v-6.5441q0-0.065254 0.0373-0.12119 0.0373-0.055932 0.12118-0.09322 0.0932-0.04661 0.23306-0.065254 0.14915-0.018644 0.3822-0.018644 0.20508 0 0.35424 0.018644 0.14915 0.018644 0.23305 0.065254 0.0839 0.037288 0.12118 0.09322 0.0373 0.055932 0.0373 0.12119zm-12.324 0.41949q0 0.07458-0.0373 0.13051-0.0373 0.05593-0.13051 0.09322-0.0932 0.02797-0.2517 0.04661-0.14915 0.02797-0.37288 0.02797-0.24237 0-0.39152-0.02797-0.14916-0.01864-0.24238-0.04661-0.0932-0.03729-0.13051-0.09322-0.0373-0.05593-0.0373-0.13051v-5.3509h-5.4907v5.3509q0 0.07458-0.0373 0.13051-0.0373 0.05593-0.13051 0.09322-0.0932 0.02797-0.2517 0.04661-0.14915 0.02797-0.3822 0.02797-0.22373 0-0.38221-0.02797-0.15847-0.01864-0.25169-0.04661-0.0932-0.03729-0.13051-0.09322-0.0373-0.05593-0.0373-0.13051v-11.578q0-0.074576 0.0373-0.13051 0.0373-0.055932 0.13051-0.083898 0.0932-0.037288 0.25169-0.055932 0.15848-0.027966 0.38221-0.027966 0.23305 0 0.3822 0.027966 0.15848 0.018644 0.2517 0.055932 0.0932 0.027966 0.13051 0.083898 0.0373 0.055932 0.0373 0.13051v4.8288h5.4907v-4.8288q0-0.074576 0.0373-0.13051 0.0373-0.055932 0.13051-0.083898 0.0932-0.037288 0.24238-0.055932 0.14915-0.027966 0.39152-0.027966 0.22373 0 0.37288 0.027966 0.15848 0.018644 0.2517 0.055932 0.0932 0.027966 0.13051 0.083898 0.0373 0.055932 0.0373 0.13051zm-11.224-5.9288q0 1.4636-0.34492 2.6381-0.34492 1.1746-1.0348 2.0042-0.68051 0.82034-1.7152 1.2678-1.0348 0.43814-2.4144 0.43814-1.361 0-2.3585-0.40085-0.98813-0.41017-1.6407-1.1839-0.64322-0.77373-0.96017-1.9203-0.31695-1.1466-0.31695-2.6381 0-1.4263 0.34492-2.5915 0.34491-1.1653 1.0348-1.9763 0.68983-0.82034 1.7246-1.2585 1.0348-0.44746 2.4144-0.44746 1.333 0 2.3212 0.40085 0.98814 0.40085 1.6407 1.1746 0.66186 0.76441 0.97881 1.9017 0.32628 1.128 0.32628 2.5915zm-1.6873 0.11186q0-1.0254-0.18644-1.9017-0.17712-0.88559-0.60594-1.5288-0.41949-0.65254-1.128-1.0161-0.70848-0.36356-1.7526-0.36356t-1.7525 0.39153q-0.70848 0.39152-1.1559 1.0441-0.43813 0.65254-0.63389 1.5288-0.18644 0.86695-0.18644 1.8271 0 1.0627 0.17711 1.9576 0.17712 0.89492 0.59661 1.5475 0.4195 0.64322 1.1186 1.0068 0.70847 0.35424 1.7712 0.35424 1.0534 0 1.7712-0.39153 0.71779-0.39153 1.1559-1.0534 0.43813-0.67119 0.62458-1.5475 0.18644-0.87627 0.18644-1.8551zm-11.587 3.0203q0 0.7178-0.13051 1.3144-0.13051 0.59661-0.44746 1.0161t-0.83898 0.65254q-0.51271 0.22373-1.2771 0.22373-0.26102 0-0.52204-0.04661-0.25169-0.03729-0.4661-0.11186-0.2144-0.06525-0.37288-0.13983-0.15847-0.0839-0.21441-0.13983-0.0466-0.05593-0.0839-0.11186-0.028-0.05593-0.0559-0.13051-0.0186-0.0839-0.028-0.19576-9e-3 -0.12119-9e-3 -0.28898 0-0.20508 9e-3 -0.33559 0.0186-0.13983 0.0559-0.21441 0.0373-0.0839 0.0839-0.11186 0.0559-0.03729 0.13051-0.03729 0.0746 0 0.18644 0.07458 0.12118 0.06525 0.27966 0.14915 0.16779 0.0839 0.3822 0.15847 0.21441 0.06526 0.50339 0.06526 0.31695 0 0.54068-0.07458 0.22373-0.0839 0.37288-0.2983 0.14915-0.21441 0.22373-0.58729 0.0746-0.3822 0.0746-0.98814v-8.6322q0-0.065254 0.0373-0.12119 0.0373-0.055932 0.1305-0.09322t0.24238-0.055932q0.15847-0.018644 0.39152-0.018644 0.22373 0 0.38221 0.018644 0.15847 0.018644 0.24237 0.055932 0.0932 0.037288 0.13051 0.09322 0.0466 0.055932 0.0466 0.12119z" fill="#fff"/>
 </g>
</svg>
