<?xml version="1.0" encoding="UTF-8" standalone="no"?>
<svg
   xmlns:dc="http://purl.org/dc/elements/1.1/"
   xmlns:cc="http://creativecommons.org/ns#"
   xmlns:rdf="http://www.w3.org/1999/02/22-rdf-syntax-ns#"
   xmlns:svg="http://www.w3.org/2000/svg"
   xmlns="http://www.w3.org/2000/svg"
   viewBox="0 0 1069.3 426.51068"
   height="426.51068"
   width="1069.3"
   xml:space="preserve"
   id="svg2"
   version="1.1"><metadata
     id="metadata8"><rdf:RDF><cc:Work
         rdf:about=""><dc:format>image/svg+xml</dc:format><dc:type
           rdf:resource="http://purl.org/dc/dcmitype/StillImage" /></cc:Work></rdf:RDF></metadata><defs
     id="defs6"><clipPath
       id="clipPath18"
       clipPathUnits="userSpaceOnUse"><path
         id="path16"
         d="M 0,319.883 H 801.975 V 0 H 0 Z" /></clipPath></defs><g
     transform="matrix(1.3333333,0,0,-1.3333333,0,426.51067)"
     id="g10"><g
       id="g12"><g
         clip-path="url(#clipPath18)"
         id="g14"><g
           transform="translate(152.0156,157.7905)"
           id="g20"><path
             id="path22"
             style="fill:#283d88;fill-opacity:1;fill-rule:nonzero;stroke:none"
             d="m 0,0 c 0,0 45.391,20.078 52.732,23.177 8.517,3.596 17.503,-1.568 19.532,-4.575 l 0.014,39.414 -103.62,-46.753 z" /></g><g
           transform="translate(150.9365,111.5586)"
           id="g24"><path
             id="path26"
             style="fill:#283d88;fill-opacity:1;fill-rule:nonzero;stroke:none"
             d="m 0,0 c 0,0 46.466,20.805 53.815,23.904 8.509,3.589 17.496,-1.577 19.528,-4.576 L 73.357,58.735 -31.35,11.271 Z" /></g><g
           transform="translate(113.7031,125.0791)"
           id="g28"><path
             id="path30"
             style="fill:#283d88;fill-opacity:1;fill-rule:nonzero;stroke:none"
             d="M 0,0 4.515,2.027 -13.789,8.631 3.298,17.002 -17.875,32.765 -96.298,-2.617 v -40.906 l 74.353,33.522 -22.099,16.666 9.772,5.854 z" /></g><g
           transform="translate(95.9238,86.1621)"
           id="g32"><path
             id="path34"
             style="fill:#283d88;fill-opacity:1;fill-rule:nonzero;stroke:none"
             d="M 0,0 21.077,10.476 -0.096,26.261 -78.519,-9.129 v -40.914 l 74.353,33.515 -22.099,16.681 9.78,5.854 z" /></g><g
           transform="translate(152.0156,203.2192)"
           id="g36"><path
             id="path38"
             style="fill:#283d88;fill-opacity:1;fill-rule:nonzero;stroke:none"
             d="m 0,0 c 0,0 45.391,20.086 52.732,23.177 8.517,3.596 17.503,-1.561 19.532,-4.576 l 0.014,39.415 -103.62,-46.761 z" /></g><g
           transform="translate(113.7031,170.5078)"
           id="g40"><path
             id="path42"
             style="fill:#283d88;fill-opacity:1;fill-rule:nonzero;stroke:none"
             d="M 0,0 4.515,2.035 -13.789,8.631 3.298,17.002 -17.875,32.765 -96.298,-2.617 v -40.891 l 74.353,33.507 -22.099,16.666 9.772,5.854 z" /></g><g
           transform="translate(152.0156,248.6553)"
           id="g44"><path
             id="path46"
             style="fill:#283d88;fill-opacity:1;fill-rule:nonzero;stroke:none"
             d="m 0,0 c 0,0 45.391,20.078 52.732,23.178 8.517,3.595 17.503,-1.569 19.532,-4.584 l 0.014,39.414 -103.62,-46.752 z" /></g><g
           transform="translate(113.7031,215.9365)"
           id="g48"><path
             id="path50"
             style="fill:#283d88;fill-opacity:1;fill-rule:nonzero;stroke:none"
             d="M 0,0 4.515,2.035 -13.789,8.639 3.298,17.002 -17.875,32.772 -96.298,-2.609 V -43.5 l 74.353,33.499 -22.099,16.673 9.772,5.854 z" /></g><g
           transform="translate(327.2148,222.249)"
           id="g52"><path
             id="path54"
             style="fill:#283d88;fill-opacity:1;fill-rule:nonzero;stroke:none"
             d="m 0,0 c -8.218,0.084 -16.517,0.161 -24.73,0.161 -6.283,0 -12.653,0 -18.927,-0.161 l 0.397,2.097 h 2.093 c 4.347,0.398 5.318,2.173 6.198,7.407 l 7.09,40.133 c 0.807,4.492 -4.347,4.744 -7.178,4.492 l 0.417,2.104 c 4.017,0 8.142,-0.161 12.159,-0.161 3.462,0 6.928,0.161 10.391,0.161 l -0.402,-2.104 c -5.154,0.092 -6.768,-0.077 -7.973,-5.227 L -28.928,2.571 h 17.087 c 7.648,0 12.162,4.278 14.255,11.447 h 1.943 z" /></g><g
           transform="translate(351.7041,223.1445)"
           id="g56"><path
             id="path58"
             style="fill:#283d88;fill-opacity:1;fill-rule:nonzero;stroke:none"
             d="m 0,0 c 10.399,0 14.825,14.179 14.825,22.466 0,5.723 -2.18,11.362 -9.097,11.362 -10.797,0 -15.067,-13.62 -15.067,-22.48 C -9.339,5.311 -7.089,0 0,0 m 5.808,35.925 c 9.346,0 15.464,-7.093 15.464,-16.36 0,-11.362 -9.668,-21.669 -21.188,-21.669 -9.668,0 -15.873,6.442 -15.873,16.199 0,11.592 9.913,21.83 21.597,21.83" /></g><g
           transform="translate(378.3745,232.3188)"
           id="g60"><path
             id="path62"
             style="fill:#283d88;fill-opacity:1;fill-rule:nonzero;stroke:none"
             d="m 0,0 c 0.807,-4.591 6.041,-6.435 10.227,-6.435 2.253,0 7.169,0.559 7.169,3.611 0,5.556 -11.753,9.03 -14.098,14.263 -0.555,1.125 -0.719,2.495 -0.719,3.704 0,4.193 5.631,7.82 8.784,9.833 2.169,1.369 3.374,1.774 5.969,1.774 3.29,0 6.997,-0.887 6.997,-4.828 0,-0.971 -0.712,-3.627 -1.699,-3.627 h -0.964 c -0.635,0 -0.799,0.559 -1.128,1.194 -0.724,1.538 -3.934,2.9 -6.6,2.9 -2.747,0 -6.049,-1.438 -6.049,-4.583 0,-6.604 14.263,-8.379 14.263,-16.758 0,-3.144 -3.137,-6.611 -5.219,-8.623 -2.674,-2.655 -5.891,-3.696 -9.591,-3.696 -3.872,0 -10.25,1.117 -10.25,6.274 0,1.86 0.98,3.39 1.86,4.997 z" /></g><g
           transform="translate(446.5254,246.6582)"
           id="g64"><path
             id="path66"
             style="fill:#283d88;fill-opacity:1;fill-rule:nonzero;stroke:none"
             d="m 0,0 h 16.681 l -3.558,24.012 h -0.145 z m 14.668,32.153 c 0.965,0.237 1.936,0.482 2.9,0.88 l 0.475,-0.329 8.86,-50.02 c 0.497,-3.466 2.105,-5.242 5.831,-4.996 l -0.421,-2.097 c -3.389,0 -6.772,0.161 -10.154,0.161 -2.892,0 -5.8,-0.069 -8.7,-0.161 l 0.406,2.097 c 2.418,-0.084 6.121,-0.161 5.639,3.052 L 17.078,-3.306 H -1.775 l -6.596,-13.688 c -0.567,-1.209 -0.888,-2.189 -0.888,-2.908 0,-2.173 2.097,-2.41 3.451,-2.41 h 2.425 l -0.397,-2.097 c -3.145,0 -6.366,0.161 -9.503,0.161 -2.495,0 -4.928,-0.069 -7.423,-0.161 l 0.413,2.097 c 3.795,-0.084 5.64,2.257 7.254,5.394 z" /></g><g
           transform="translate(486.2461,248.9155)"
           id="g68"><path
             id="path70"
             style="fill:#283d88;fill-opacity:1;fill-rule:nonzero;stroke:none"
             d="m 0,0 c 3.053,3.788 8.707,10.154 14.025,10.154 1.92,0 2.74,-1.209 2.74,-2.739 0,-1.37 -0.567,-2.908 -0.888,-3.88 L 11.676,-8.624 h 0.176 c 3.857,5.563 15.794,18.854 23.682,18.778 2.487,0 3.222,-1.53 3.222,-3.306 0,-1.293 -0.399,-2.815 -0.812,-3.955 l -6.442,-17.722 c -0.719,-1.936 -1.201,-3.221 -1.201,-4.186 0,-0.964 0.313,-1.698 1.446,-1.698 2.165,0 5.716,3.795 6.933,5.647 l 1.361,-1.049 -2.915,-3.55 c -2.809,-3.459 -6.749,-6.994 -11.179,-6.994 -2.097,0 -3.061,1.194 -3.061,2.656 0,1.285 0.237,2.647 1.117,4.988 l 6.298,17.156 c 0.221,0.734 1.04,2.907 1.04,4.032 0,1.056 -0.964,1.531 -1.844,1.531 -4.515,0 -9.121,-5.395 -11.784,-8.379 -4.43,-4.744 -7.881,-10.307 -10.069,-16.429 l -1.592,-4.598 c -0.252,-0.643 -2.02,-0.881 -2.999,-0.881 -0.804,0 -2.166,0.483 -2.572,1.041 l 7.897,23.767 c 0.49,1.538 0.964,3.061 0.964,4.032 0,0.804 -0.321,1.447 -1.278,1.447 -1.691,0 -3.236,-1.286 -4.69,-2.74 L 1.216,-1.454 Z" /></g><g
           transform="translate(550.375,256.9727)"
           id="g72"><path
             id="path74"
             style="fill:#283d88;fill-opacity:1;fill-rule:nonzero;stroke:none"
             d="m 0,0 c -6.52,0.322 -10.139,-8.141 -10.139,-13.452 0,-3.863 1.447,-7.169 5.862,-7.169 6.451,0 10.001,8.294 10.001,13.773 C 5.724,-3.466 4.193,0 0,0 m -9.351,-33.928 c -1.606,-0.558 -9.733,-4.101 -9.733,-8.608 0,-6.045 7.323,-7.981 12.229,-7.981 3.886,0 11.691,1.293 11.691,6.535 0,2.166 -1.859,3.78 -3.94,4.828 z m 13.215,0.329 c 3.711,-2.005 6.29,-3.381 6.29,-8.065 0,-8.126 -11.439,-11.424 -17.966,-11.424 -5.731,0 -16.605,1.446 -16.605,9.267 0,5.876 8.142,9.181 12.656,10.949 -1.522,0.964 -4.514,2.181 -4.514,4.431 0,3.06 4.353,5.478 6.527,6.932 -4.347,2.418 -6.841,4.912 -6.841,10.07 0,7.575 8.142,13.536 15.701,13.536 4.752,0 6.535,-1.454 10.644,-2.502 0.558,-0.161 1.201,-0.406 1.691,-0.406 0.964,0 1.852,0.49 2.656,0.972 0.803,0.482 1.606,0.972 2.494,0.972 1.041,0 1.286,-1.209 1.286,-2.342 0,-1.454 -0.643,-2.984 -1.937,-2.984 -1.682,0 -3.298,1.775 -6.35,2.104 1.767,-1.935 2.57,-4.269 2.57,-6.771 0,-8.455 -8.386,-13.858 -16.268,-13.858 -1.223,0 -2.494,0.076 -3.71,0.238 -0.727,-0.238 -2.502,-2.005 -2.502,-2.817 0,-1.056 0.734,-1.377 1.538,-1.775 z" /></g><g
           transform="translate(592.835,253.0244)"
           id="g76"><path
             id="path78"
             style="fill:#283d88;fill-opacity:1;fill-rule:nonzero;stroke:none"
             d="m 0,0 c 0,2.097 -1.217,3.459 -3.298,3.459 -6.198,0 -12.58,-11.279 -13.865,-16.597 C -9.733,-12.641 0,-8.776 0,0 m 3.543,-21.509 c -5.311,-5.877 -11.202,-10.475 -18.28,-10.475 -7.422,0 -9.909,5.478 -9.909,10.873 0,12.893 11.516,27.156 23.184,27.156 3.643,0 7.897,-1.293 7.897,-5.724 0,-10.949 -15.38,-14.737 -23.996,-15.54 -0.49,-2.104 -0.65,-4.117 -0.65,-6.206 0,-4.04 2.815,-6.213 6.604,-6.213 4.667,0 9.442,3.069 14.033,7.491 z" /></g><g
           transform="translate(609.7529,230.7886)"
           id="g80"><path
             id="path82"
             style="fill:#283d88;fill-opacity:1;fill-rule:nonzero;stroke:none"
             d="m 0,0 c -0.092,-0.329 -0.245,-1.048 -0.245,-1.607 0,-0.888 0.092,-1.706 1.057,-1.706 1.522,0 5.31,5.012 6.197,6.213 L 7.974,1.209 C 5.325,-2.257 0.812,-9.741 -4.193,-9.741 c -2.48,0 -2.977,1.844 -2.977,3.941 0,1.53 0.321,2.984 0.566,3.948 l 11.287,48.658 -4.836,2.586 0.406,1.117 c 1.76,0.161 3.863,0.49 5.869,0.896 2.173,0.482 4.116,1.04 5.884,1.606 l 0.573,-0.481 z" /></g><g
           transform="translate(648.502,253.0244)"
           id="g84"><path
             id="path86"
             style="fill:#283d88;fill-opacity:1;fill-rule:nonzero;stroke:none"
             d="M 0,0 C 0,2.097 -1.209,3.459 -3.306,3.459 -9.512,3.459 -15.854,-7.82 -17.171,-13.138 -9.748,-12.641 0,-8.776 0,0 m 3.55,-21.509 c -5.318,-5.877 -11.202,-10.475 -18.287,-10.475 -7.408,0 -9.909,5.478 -9.909,10.873 0,12.893 11.523,27.156 23.2,27.156 3.619,0 7.888,-1.293 7.888,-5.724 0,-10.949 -15.372,-14.737 -23.996,-15.54 -0.489,-2.104 -0.657,-4.117 -0.657,-6.206 0,-4.04 2.83,-6.213 6.618,-6.213 4.668,0 9.419,3.069 14.011,7.491 z" /></g><g
           transform="translate(660.7441,232.3188)"
           id="g88"><path
             id="path90"
             style="fill:#283d88;fill-opacity:1;fill-rule:nonzero;stroke:none"
             d="m 0,0 c 0.812,-4.591 6.045,-6.435 10.238,-6.435 2.258,0 7.17,0.559 7.17,3.611 0,5.556 -11.761,9.03 -14.102,14.263 -0.566,1.125 -0.719,2.495 -0.719,3.704 0,4.193 5.632,7.82 8.768,9.833 2.189,1.369 3.398,1.774 5.969,1.774 3.306,0 7.017,-0.887 7.017,-4.828 0,-0.971 -0.728,-3.627 -1.692,-3.627 h -0.971 c -0.651,0 -0.803,0.559 -1.14,1.194 -0.712,1.538 -3.934,2.9 -6.597,2.9 -2.738,0 -6.045,-1.438 -6.045,-4.583 0,-6.604 14.264,-8.379 14.264,-16.758 0,-3.144 -3.152,-6.611 -5.234,-8.623 -2.662,-2.655 -5.876,-3.696 -9.588,-3.696 -3.863,0 -10.231,1.117 -10.231,6.274 0,1.86 0.965,3.39 1.853,4.997 z" /></g><g
           transform="translate(302.4072,183.623)"
           id="g92"><path
             id="path94"
             style="fill:#283d88;fill-opacity:1;fill-rule:nonzero;stroke:none"
             d="m 0,0 h -0.814 c -2.166,0 -4.431,-0.329 -4.343,-2.418 0.076,-1.048 0.241,-1.936 0.562,-3.061 l 9.022,-39.796 11.038,19.42 -6.126,22.878 C 8.616,-0.88 7.323,-0.161 4.105,0 H 3.142 l 0.39,2.097 C 6.769,1.936 10.066,2.02 13.364,1.936 16.36,1.852 19.329,2.097 21.012,2.097 L 20.622,0 h -1.526 c -1.615,-0.084 -2.43,-1.286 -2.109,-2.579 l 3.39,-14.653 h 0.149 l 6.615,12.082 c 0.651,1.362 1.056,2.495 1.056,3.137 0,1.776 -0.971,1.929 -3.791,2.013 h -0.727 l 0.405,2.097 c 2.342,-0.161 4.748,-0.077 7.17,-0.161 2.579,-0.084 5.069,0 7.732,0.161 L 38.588,0 H 37.383 C 33.588,0.161 32.54,-2.334 30.691,-5.479 29.877,-6.856 21.506,-21.027 21.506,-21.027 l 6.033,-24.248 h 0.18 L 46.32,-6.611 c 0.643,1.369 1.367,2.823 1.367,4.438 0,1.691 -0.8,2.089 -4.921,2.173 H 41.81 l 0.405,2.097 c 2.491,-0.161 5.391,-0.245 8.127,-0.161 2.421,0.084 4.928,0.161 7.334,0.161 L 57.274,0 H 56.635 C 53.728,-0.084 52.763,-2.173 51.156,-5.318 L 25.534,-55.346 H 23.277 L 16.421,-29.812 1.611,-55.346 H -0.485 L -12.896,-2.977 C -13.375,-0.88 -14.668,-0.161 -17.89,0 h -0.964 l 0.41,2.097 c 3.21,-0.161 6.507,-0.077 9.825,-0.161 2.976,-0.084 5.945,0.161 9.01,0.161 z" /></g><g
           transform="translate(363.7178,130.374)"
           id="g96"><path
             id="path98"
             style="fill:#283d88;fill-opacity:1;fill-rule:nonzero;stroke:none"
             d="m 0,0 c 10.379,0 14.829,14.187 14.829,22.474 0,5.715 -2.177,11.37 -9.109,11.37 -10.809,0 -15.063,-13.62 -15.063,-22.489 C -9.343,5.311 -7.094,0 0,0 m 5.796,35.933 c 9.347,0 15.46,-7.093 15.46,-16.36 0,-11.355 -9.66,-21.67 -21.188,-21.67 -9.66,0 -15.858,6.444 -15.858,16.192 0,11.6 9.913,21.838 21.586,21.838" /></g><g
           transform="translate(389.4888,155.5029)"
           id="g100"><path
             id="path102"
             style="fill:#283d88;fill-opacity:1;fill-rule:nonzero;stroke:none"
             d="m 0,0 c 2.016,2.991 8.222,10.804 12.17,10.804 2.02,0 3.298,-0.887 3.298,-3.069 0,-0.887 -0.314,-2.41 -0.8,-4.193 l -3.06,-11.033 h 0.145 c 2.188,4.108 9.748,18.295 14.844,18.295 1.684,0 2.495,-0.964 2.495,-2.74 0,-1.859 -0.903,-5.968 -3.389,-5.968 -0.973,0 -2.005,0.329 -2.977,0.329 -5.563,0 -11.275,-15.64 -13.934,-23.851 l -1.45,-5.149 c -0.165,-0.573 -1.458,-0.658 -2.92,-0.658 -1.044,0 -2.563,0.727 -2.563,1.454 0,0.245 0.069,0.49 0.157,0.734 l 6.378,22.229 c 0.398,1.285 0.956,3.55 0.956,4.752 0,0.887 -0.477,2.096 -1.53,2.096 -2.177,0 -5.475,-3.788 -6.768,-5.394 z" /></g><g
           transform="translate(425.9111,138.0264)"
           id="g104"><path
             id="path106"
             style="fill:#283d88;fill-opacity:1;fill-rule:nonzero;stroke:none"
             d="m 0,0 c -0.084,-0.33 -0.245,-1.041 -0.245,-1.623 0,-0.872 0.077,-1.683 1.057,-1.683 1.514,0 5.302,4.996 6.197,6.205 L 7.966,1.209 C 5.311,-2.266 0.812,-9.757 -4.193,-9.757 c -2.494,0 -2.984,1.861 -2.984,3.948 0,1.546 0.336,2.993 0.566,3.956 l 11.279,48.659 -4.836,2.57 0.405,1.133 c 1.784,0.168 3.872,0.482 5.877,0.887 2.181,0.49 4.109,1.049 5.876,1.615 l 0.582,-0.482 z" /></g><g
           transform="translate(451.292,132.624)"
           id="g108"><path
             id="path110"
             style="fill:#283d88;fill-opacity:1;fill-rule:nonzero;stroke:none"
             d="m 0,0 c 8.211,0 16.191,16.688 16.191,23.207 0,3.872 -1.384,7.163 -5.731,7.163 C 1.37,30.37 -5.808,14.905 -5.808,7.414 -5.808,3.711 -4.354,0 0,0 M 26.819,6.611 C 24.004,2.747 18.448,-4.354 13.276,-4.354 c -1.362,0 -2.479,1.048 -2.479,2.51 0,1.928 0.888,4.981 1.522,7.085 l 0.559,1.776 H 12.732 C 8.287,1.698 2.962,-4.354 -4.431,-4.354 c -5.814,0 -7.819,4.522 -7.819,9.756 0,5.157 2.333,10.636 5.479,15.227 3.78,5.478 11.998,13.054 19.006,13.054 2.173,0 4.278,-0.735 6.121,-1.775 l 3.95,20.3 -4.829,2.571 0.405,1.132 c 1.775,0.169 3.857,0.483 5.885,0.888 2.166,0.49 4.109,1.048 5.877,1.615 L 30.446,58.092 17.959,5.968 C 17.714,4.904 17.554,4.116 17.554,3.313 c 0,-0.895 0.481,-1.293 1.293,-1.293 2.257,0 5.478,4.101 6.847,5.715 z" /></g><g
           transform="translate(524.1836,153.8955)"
           id="g112"><path
             id="path114"
             style="fill:#283d88;fill-opacity:1;fill-rule:nonzero;stroke:none"
             d="m 0,0 h 16.687 l -3.549,24.012 h -0.161 z m 14.684,32.138 c 0.956,0.245 1.92,0.497 2.892,0.895 l 0.474,-0.329 8.861,-50.027 c 0.497,-3.467 2.097,-5.234 5.816,-4.997 l -0.414,-2.089 c -3.382,0 -6.764,0.161 -10.139,0.161 -2.907,0 -5.807,-0.084 -8.699,-0.161 l 0.397,2.089 c 2.403,-0.076 6.122,-0.153 5.632,3.068 L 17.086,-3.298 H -1.768 l -6.595,-13.696 c -0.567,-1.217 -0.889,-2.181 -0.889,-2.908 0,-2.181 2.098,-2.418 3.459,-2.418 h 2.426 l -0.405,-2.089 c -3.138,0 -6.382,0.161 -9.504,0.161 -2.51,0 -4.928,-0.084 -7.415,-0.161 l 0.406,2.089 c 3.779,-0.076 5.632,2.265 7.254,5.402 z" /></g><g
           transform="translate(583.1709,181.2891)"
           id="g116"><path
             id="path118"
             style="fill:#283d88;fill-opacity:1;fill-rule:nonzero;stroke:none"
             d="m 0,0 c 0,-1.859 -1.768,-3.627 -3.704,-3.627 -1.936,0 -3.703,1.768 -3.703,3.627 0,1.936 1.691,3.788 3.703,3.788 C -1.691,3.788 0,1.936 0,0 m -18.212,-25.458 c 2.342,3.543 8.143,10.476 12.733,10.476 1.944,0 2.495,-0.804 2.495,-2.02 0,-1.209 -0.72,-3.306 -1.118,-4.507 l -6.611,-20.469 c -0.489,-1.53 -0.804,-2.655 -0.804,-3.381 0,-0.796 0.239,-1.209 1.049,-1.209 1.133,0 5.311,4.353 6.121,5.233 l 1.286,-1.049 c -2.502,-3.374 -8.217,-10.628 -12.809,-10.628 -2.342,0 -3.076,1.37 -3.076,3.23 0,0.971 0.414,2.334 0.895,3.94 l 6.925,20.469 c 0.413,1.124 0.734,2.242 0.734,2.969 0,0.566 -0.321,0.971 -0.963,0.971 -1.684,0 -4.759,-3.864 -5.724,-5.149 z" /></g><g
           transform="translate(585.665,155.5029)"
           id="g120"><path
             id="path122"
             style="fill:#283d88;fill-opacity:1;fill-rule:nonzero;stroke:none"
             d="m 0,0 c 2.013,2.991 8.226,10.804 12.167,10.804 2.02,0 3.305,-0.887 3.305,-3.069 0,-0.887 -0.328,-2.41 -0.795,-4.193 L 11.593,-7.491 h 0.176 c 2.172,4.108 9.748,18.295 14.814,18.295 1.698,0 2.494,-0.964 2.494,-2.74 0,-1.859 -0.88,-5.968 -3.383,-5.968 -0.948,0 -2.004,0.329 -2.968,0.329 -5.555,0 -11.287,-15.64 -13.957,-23.851 l -1.431,-5.149 c -0.176,-0.573 -1.446,-0.658 -2.915,-0.658 -1.041,0 -2.556,0.727 -2.556,1.454 0,0.245 0.062,0.49 0.146,0.734 l 6.358,22.229 c 0.398,1.285 0.98,3.55 0.98,4.752 0,0.887 -0.491,2.096 -1.546,2.096 -2.165,0 -5.463,-3.788 -6.764,-5.394 z" /></g><g
           transform="translate(628.4463,142.2881)"
           id="g124"><path
             id="path126"
             style="fill:#283d88;fill-opacity:1;fill-rule:nonzero;stroke:none"
             d="m 0,0 c -0.321,-1.844 -0.888,-3.451 -0.888,-6.527 0,-1.768 1.538,-5.387 4.431,-5.387 8.386,0 16.283,18.035 16.283,25.855 0,6.612 -5.013,7.492 -7.82,7.492 -2.907,0 -5.402,-0.483 -6.933,-1.202 z m 1.538,30.783 6.703,1.936 -2.51,-10.154 c 1.684,0.65 4.737,1.454 8.846,1.454 6.856,0 12.182,-2.418 12.182,-9.994 0,-10.804 -11.524,-28.036 -23.308,-28.036 -2.326,0 -4.652,0.957 -6.428,2.334 l -3.948,-15.709 6.52,-1.125 -0.399,-1.446 c -2.264,-0.168 -4.277,-0.329 -7.1,-0.566 -2.326,-0.252 -3.773,-0.398 -5.556,-0.643 l -0.481,0.643 12.251,48.902 c -3.23,-1.14 -6.52,-2.265 -9.588,-3.871 l 0.558,3.129 c 3.137,1.378 6.381,2.518 9.672,3.482 z" /></g><g
           transform="translate(675.1758,130.374)"
           id="g128"><path
             id="path130"
             style="fill:#283d88;fill-opacity:1;fill-rule:nonzero;stroke:none"
             d="m 0,0 c 10.391,0 14.821,14.187 14.821,22.474 0,5.715 -2.18,11.37 -9.105,11.37 -10.789,0 -15.067,-13.62 -15.067,-22.489 C -9.351,5.311 -7.094,0 0,0 m 5.8,35.933 c 9.343,0 15.465,-7.093 15.465,-16.36 0,-11.355 -9.672,-21.67 -21.181,-21.67 -9.664,0 -15.877,6.444 -15.877,16.192 0,11.6 9.901,21.838 21.593,21.838" /></g><g
           transform="translate(701.3682,155.5029)"
           id="g132"><path
             id="path134"
             style="fill:#283d88;fill-opacity:1;fill-rule:nonzero;stroke:none"
             d="m 0,0 c 1.997,2.991 8.21,10.804 12.144,10.804 2.019,0 3.32,-0.887 3.32,-3.069 0,-0.887 -0.337,-2.41 -0.818,-4.193 L 11.593,-7.491 h 0.16 c 2.173,4.108 9.748,18.295 14.821,18.295 1.692,0 2.495,-0.964 2.495,-2.74 0,-1.859 -0.873,-5.968 -3.375,-5.968 -0.971,0 -2.027,0.329 -2.984,0.329 -5.563,0 -11.286,-15.64 -13.949,-23.851 l -1.439,-5.149 c -0.16,-0.573 -1.446,-0.658 -2.907,-0.658 -1.041,0 -2.571,0.727 -2.571,1.454 0,0.245 0.084,0.49 0.153,0.734 l 6.374,22.229 c 0.39,1.285 0.964,3.55 0.964,4.752 0,0.887 -0.482,2.096 -1.538,2.096 -2.157,0 -5.464,-3.788 -6.749,-5.394 z" /></g><g
           transform="translate(746.5518,175.2363)"
           id="g136"><path
             id="path138"
             style="fill:#283d88;fill-opacity:1;fill-rule:nonzero;stroke:none"
             d="M 0,0 H 6.458 L 3.152,-10.139 h 8.617 l -0.965,-3.298 H 2.249 l -7.001,-23.299 c -0.245,-0.719 -0.481,-1.691 -0.481,-2.487 0,-0.971 0.397,-1.775 1.606,-1.775 3.138,0 7.897,4.912 9.993,7.009 l 1.133,-1.369 c -3.627,-4.034 -10.246,-11.609 -16.107,-11.609 -2.35,0 -3.566,2.105 -3.566,4.201 0,1.607 0.651,3.788 1.064,5.15 l 7.162,24.179 h -7.889 l 0.964,3.298 h 7.805 z" /></g><g
           transform="translate(761.2891,139.5488)"
           id="g140"><path
             id="path142"
             style="fill:#283d88;fill-opacity:1;fill-rule:nonzero;stroke:none"
             d="m 0,0 c 0.811,-4.584 6.045,-6.443 10.238,-6.443 2.257,0 7.178,0.566 7.178,3.634 0,5.548 -11.776,9.022 -14.103,14.255 -0.574,1.117 -0.719,2.503 -0.719,3.704 0,4.186 5.624,7.821 8.777,9.826 2.173,1.377 3.382,1.782 5.96,1.782 3.298,0 7.001,-0.895 7.001,-4.843 0,-0.957 -0.727,-3.62 -1.683,-3.62 h -0.963 c -0.643,0 -0.812,0.559 -1.133,1.209 -0.719,1.523 -3.941,2.9 -6.596,2.9 -2.739,0 -6.053,-1.446 -6.053,-4.591 0,-6.611 14.271,-8.378 14.271,-16.757 0,-3.145 -3.16,-6.604 -5.249,-8.623 -2.663,-2.663 -5.885,-3.712 -9.58,-3.712 -3.872,0 -10.239,1.133 -10.239,6.298 0,1.835 0.965,3.374 1.86,4.981 z" /></g><g
           transform="translate(36.0259,15.291)"
           id="g144"><path
             id="path146"
             style="fill:#283d88;fill-opacity:1;fill-rule:nonzero;stroke:none"
             d="M 0,0 3.229,8.417 H 6.535 V -3.45 H 4.38 V 5.823 H 4.316 L 0.785,-3.45 H -0.838 L -4.38,5.823 H -4.434 V -3.45 H -6.6 V 8.417 h 3.341 z m -9.018,6.55 h -3.619 v -10 h -2.315 v 10 h -3.634 v 1.867 h 9.568 z" /></g></g></g></g></svg>